<svg xmlns="http://www.w3.org/2000/svg"
          id="italy-map"
          viewBox="0 0 610.30981 792.58575"
          role="img"
          aria-label="Mappa dell'Italia divisa in quattro macroaree"
          preserveAspectRatio="xMidYMid meet"
        >
  <style>
    .macroarea { stroke: #fff; stroke-width: 1.4; vector-effect: non-scaling-stroke; shape-rendering: geometricPrecision; cursor: pointer; transition: opacity .14s ease, filter .14s ease; }
    .macroarea:nth-child(1) { fill: #f36a15; }
    .macroarea:nth-child(2) { fill: #f57d32; }
    .macroarea:nth-child(3) { fill: #f79558; }
    .macroarea:nth-child(4) { fill: #f8aa78; }
    .macroarea:hover,.macroarea:focus,.macroarea.remote-active { fill: url(#active-hatch); filter: drop-shadow(0 7px 7px rgba(29,29,27,.20)); }
    .macroarea.dimmed { opacity: .24; }
    .microstate { fill: #fff; stroke: rgba(29,29,27,.68); stroke-width: .9; vector-effect: non-scaling-stroke; }
    #map-tooltip { opacity: 0; pointer-events: none; transition: opacity .12s ease; }
    #map-tooltip.visible { opacity: 1; }
    #map-tooltip text { font-family: -apple-system,BlinkMacSystemFont,"Segoe UI",Arial,sans-serif; }
    @media (prefers-reduced-motion: reduce) { .macroarea,#map-tooltip { transition: none; } }
  </style>
  <defs>
    <pattern id="active-hatch" width="15" height="15" patternUnits="userSpaceOnUse" patternTransform="rotate(45)"><rect width="15" height="15" fill="#fff4ec"/><rect width="5" height="15" fill="#f36a15"/></pattern>
    <filter id="tooltip-shadow" x="-20%" y="-30%" width="140%" height="170%"><feDropShadow dx="0" dy="8" stdDeviation="10" flood-color="#171714" flood-opacity=".22"/></filter>
  </defs>
          <g id="macroareas">
            <path class="macroarea" data-area="northwest" aria-label="Nord-Ovest" d="M 24.75,120.521 L 25.37,122.971 L 29.11,124.981 L 27.87,126.781 L 27.86,128.251 L 26.54,128.941 L 26.13,130.481 L 25.15,130.661 L 26.42,133.941 L 25.89,136.571 L 25.16,136.471 L 23.02,139.091 L 22.05,137.961 L 20.82,138.701 L 19.53,138.491 L 17.12,140.611 L 16.7,142.121 L 14.01,142.221 L 14,144.521 L 11.74,145.211 L 11.65,144.571 L 7.57,142.861 L 6.26,144.421 L 3.09,144.241 L 2.69,145.321 L 0.31,146.801 L 1.19,148.991 L 2.11,149.251 L 2.73,153.001 L 6.36,153.411 L 6.7,154.571 L 6.01,155.121 L 7.41,157.301 L 6.33,158.841 L 6.91,159.191 L 6.71,161.271 L 9.24,162.261 L 9.4,163.151 L 12.48,165.241 L 14.88,165.701 L 16.18,164.401 L 19.76,166.051 L 20.62,167.191 L 19.46,169.661 L 20.52,170.821 L 21.07,174.041 L 22.92,175.131 L 23.4,177.011 L 18.82,176.721 L 17.53,177.701 L 16.82,179.431 L 17.8,181.831 L 16.87,181.911 L 15.99,185.091 L 14.81,186.251 L 13.21,186.421 L 12.08,188.121 L 13.2,191.751 L 16.81,195.381 L 13.95,195.941 L 13.67,200.171 L 15.49,201.001 L 15.72,202.341 L 17.4,203.891 L 17.22,204.911 L 19.17,206.041 L 19.79,209.211 L 21.05,210.071 L 23.73,209.681 L 26.77,211.741 L 27.72,211.221 L 29.04,211.661 L 30.59,213.981 L 31.92,213.761 L 33.74,215.971 L 37,215.591 L 37.72,217.771 L 39.55,217.081 L 41.19,218.011 L 41.51,216.711 L 43.06,217.061 L 48.24,214.871 L 51.14,215.351 L 52.02,213.441 L 54.5,213.541 L 53.6,216.651 L 56.04,219.941 L 55.98,221.431 L 55.69,223.161 L 53.52,224.091 L 53.77,226.211 L 52.98,227.961 L 48.61,230.251 L 48.23,233.421 L 45.78,234.171 L 45.03,235.111 L 44.94,236.651 L 47.09,241.821 L 48.11,242.041 L 49.35,241.031 L 54.04,242.101 L 55.57,240.511 L 57.38,240.811 L 60.71,238.851 L 62.25,239.311 L 63.69,238.101 L 68.13,237.201 L 72.33,234.451 L 74.64,233.951 L 75.55,232.281 L 79.84,229.391 L 79.1,228.031 L 79.32,226.621 L 82.46,223.091 L 82.73,219.751 L 84.72,216.291 L 92.72,212.291 L 92.34,210.251 L 94.26,207.701 L 93.5,206.691 L 96.5,203.941 L 95.8,204.081 L 96.57,203.071 L 102.51,200.051 L 103.98,198.511 L 105.81,198.161 L 107.34,196.691 L 109.41,195.891 L 111.47,196.371 L 111.2,195.851 L 113.58,195.961 L 114.5,196.331 L 113.33,196.541 L 117.87,197.771 L 117.46,197.101 L 118.05,196.661 L 118.7,197.721 L 129.37,200.421 L 130.06,201.381 L 129.54,203.161 L 133.18,204.851 L 133.06,202.441 L 134.15,201.401 L 141.18,205.361 L 142.8,208.151 L 143.46,207.681 L 144.86,209.131 L 147.22,209.211 L 148.15,210.631 L 150.27,211.431 L 151.18,213.121 L 153.22,214.021 L 154.57,216.581 L 155.69,215.761 L 158.13,217.041 L 160.03,219.501 L 164.801,222.617 L 165.41,223.591 L 165.81,222.601 L 164.798,222.601 L 165.84,221.211 L 165.09,221.341 L 165.33,220.751 L 164.03,219.131 L 165.32,218.341 L 167.31,220.341 L 168.66,220.351 L 168.61,221.271 L 171.56,223.471 L 172.75,222.601 L 174.33,222.871 L 176.55,220.321 L 176.82,218.941 L 174.45,217.471 L 172.67,218.971 L 173.16,217.741 L 172.22,216.351 L 172.02,213.991 L 168.09,214.121 L 169.33,212.141 L 170.08,212.081 L 168.61,211.061 L 166.53,212.811 L 166.96,210.081 L 166.15,209.381 L 166.06,206.811 L 163.47,205.751 L 159.44,202.621 L 158.43,200.041 L 157.11,200.231 L 155.69,196.911 L 152.99,194.921 L 151.94,195.571 L 150.52,194.701 L 150.17,195.661 L 147.39,195.931 L 146.45,197.061 L 146.19,195.891 L 144.54,196.281 L 146.08,191.771 L 147.4,191.561 L 147.88,188.141 L 147.02,186.051 L 143.79,184.941 L 143,183.211 L 140.56,185.001 L 137.41,182.451 L 136.97,183.501 L 134.87,183.151 L 135.21,182.311 L 134.61,181.681 L 132.311,182.128 L 132.28,176.961 L 132.844,177.175 L 132.85,177.221 L 132.948,177.214 L 132.948,177.214 L 134.6,177.111 L 134.318,175.331 L 134.393,175.306 L 135.59,177.601 L 138.82,176.741 L 138.11,175.341 L 139,174.301 L 138.85,173.081 L 137.11,172.151 L 136.81,171.051 L 140.66,167.171 L 139.59,163.921 L 138.62,163.101 L 137.89,163.501 L 136.14,161.891 L 137.39,160.251 L 136.79,159.231 L 138.45,158.811 L 139.82,154.761 L 141.45,153.011 L 141.33,150.831 L 143.37,148.991 L 143.26,148.321 L 144.49,148.501 L 144.81,147.691 L 147.64,146.971 L 149.21,148.831 L 150.34,147.801 L 149.71,145.071 L 150.44,144.951 L 152.04,147.091 L 153.32,146.551 L 153.97,144.641 L 154.89,145.891 L 154.74,148.391 L 158.92,150.181 L 160.54,148.761 L 161.04,147.751 L 160.29,146.661 L 161.16,146.391 L 161.98,147.931 L 163.83,148.881 L 164.2,150.741 L 165.13,147.531 L 166.13,147.561 L 167.14,149.041 L 168.02,148.651 L 168.21,147.491 L 167.08,145.901 L 168.88,144.441 L 169.61,145.051 L 169.23,147.241 L 172.11,145.021 L 173,145.111 L 174.88,147.561 L 174.44,149.051 L 175.96,150.281 L 176.03,151.501 L 177.52,151.151 L 178.31,152.881 L 181.64,151.321 L 182.17,152.241 L 184.39,152.171 L 187.39,154.541 L 188.99,154.581 L 191.82,156.851 L 194.27,155.511 L 195.74,158.431 L 200.31,160.661 L 204.25,160.491 L 205.7,159.651 L 208.55,155.531 L 209,157.151 L 210.8,155.081 L 211.77,158.201 L 216.18,158.911 L 216.93,159.701 L 217.81,159.541 L 217.89,160.291 L 219.23,160.121 L 219.03,160.701 L 220.49,159.801 L 221.84,160.021 L 222.07,158.861 L 224.39,157.671 L 227.51,157.931 L 228.44,157.141 L 231.09,157.781 L 232.31,159.321 L 232.86,158.671 L 236.75,158.361 L 237.11,157.701 L 238.59,158.751 L 240.26,157.161 L 246.49,158.081 L 246.26,157.051 L 238.28,152.771 L 238.27,150.311 L 236.84,151.161 L 233.71,150.001 L 234.3,148.381 L 233.89,147.371 L 235.16,146.351 L 232.16,145.231 L 231.23,146.911 L 229.87,146.181 L 229.63,147.451 L 228.43,147.231 L 226.11,145.281 L 227.07,143.401 L 226.2,142.851 L 224.59,143.171 L 224.97,141.461 L 224.17,140.241 L 221.3,138.941 L 221.4,137.641 L 219.57,137.161 L 219.46,136.481 L 216.82,135.891 L 215.7,133.541 L 213.74,131.611 L 211.33,133.611 L 210.82,132.621 L 209.33,132.231 L 210.01,130.321 L 209.01,128.831 L 210.31,127.851 L 209.35,127.101 L 210.31,124.531 L 207.85,123.401 L 207.15,124.211 L 206.31,124.031 L 206.71,122.051 L 205.58,110.301 L 216.67,93.801 L 212.7,93.031 L 212.31,93.891 L 211.04,92.911 L 207.03,93.721 L 206.56,95.871 L 204.58,95.941 L 202.44,97.271 L 201.12,97.141 L 200.7,96.271 L 201.41,94.901 L 199.16,93.951 L 198.64,89.641 L 199.55,87.541 L 198.25,85.551 L 198.41,83.521 L 196.67,83.201 L 196.62,82.201 L 197.19,80.371 L 198.38,79.431 L 198.02,77.531 L 201.35,73.461 L 202.29,69.031 L 201.22,67.441 L 203.5,63.281 L 202.98,61.141 L 202.17,60.671 L 203.06,59.401 L 202.46,57.381 L 199.82,56.111 L 202.4,53.561 L 204.37,53.451 L 205.86,51.891 L 205.02,50.501 L 205.25,48.311 L 204.22,46.951 L 201.58,45.181 L 197.81,44.881 L 196.66,42.181 L 194.75,40.701 L 193.65,41.181 L 191.42,40.301 L 190.76,41.311 L 188.52,40.721 L 188.04,39.171 L 185.97,38.791 L 185.71,37.671 L 186.62,36.231 L 186.1,35.651 L 185.63,34.491 L 184.4,35.731 L 183.09,35.091 L 180.06,36.641 L 178.65,36.261 L 178.55,38.431 L 175.67,41.541 L 176.18,43.031 L 175.57,46.041 L 176.14,47.091 L 175.44,48.601 L 177.54,50.331 L 180.66,49.781 L 181.02,51.021 L 181.92,51.221 L 181.71,52.741 L 180.52,52.981 L 180,54.751 L 178.92,55.441 L 178.79,56.941 L 181.35,59.931 L 182.44,62.551 L 179.68,64.911 L 178.05,64.621 L 176.95,65.391 L 175.73,64.541 L 176.26,61.981 L 173.34,60.491 L 173.46,58.301 L 172.42,57.631 L 173.19,55.481 L 170.93,53.431 L 169.54,54.431 L 168.58,53.331 L 161.96,56.711 L 159.85,55.611 L 158.44,59.891 L 156.64,59.131 L 154.5,60.341 L 150.63,58.781 L 150.17,59.161 L 148.65,57.341 L 147.65,54.331 L 145.76,53.701 L 145.88,46.051 L 144.9,45.461 L 145.59,45.201 L 145.83,43.741 L 144.38,44.451 L 143.12,46.851 L 141.24,45.541 L 140.62,43.751 L 136.22,44.741 L 136.04,47.631 L 134.7,48.771 L 136.36,50.851 L 136.09,54.081 L 137.17,55.291 L 137.28,57.341 L 134.94,61.711 L 134.77,64.101 L 133.31,64.251 L 131.28,68.941 L 130.22,69.011 L 128.08,71.451 L 125.66,72.641 L 126.45,75.061 L 125.85,76.691 L 122.82,77.781 L 122.28,78.821 L 123.41,82.091 L 121.52,83.821 L 122.74,84.521 L 123,86.781 L 125.06,87.321 L 125.88,88.921 L 126.62,89.021 L 124.58,91.191 L 123.84,94.851 L 121.51,94.771 L 121.85,93.771 L 119.75,92.991 L 117.43,93.861 L 119.18,91.231 L 116.71,86.351 L 116.67,84.671 L 115.25,84.341 L 113.31,82.301 L 110.96,82.271 L 113.44,77.831 L 114.49,77.201 L 114.46,76.091 L 112.1,74.161 L 110.88,74.681 L 109.62,74.031 L 108.77,72.631 L 107.671,73.839 L 105.88,73.981 L 103.86,72.431 L 102.05,72.491 L 101.29,71.111 L 101.6,70.051 L 100.12,69.421 L 97.92,65.431 L 94.87,64.431 L 93.45,63.161 L 94.11,61.981 L 92.61,59.491 L 94.56,56.941 L 94.92,52.201 L 94.18,50.231 L 94.8,48.711 L 93.25,47.141 L 89.35,48.191 L 87.36,50.111 L 86.36,50.191 L 85.58,51.431 L 87.03,52.131 L 86.56,53.631 L 84.18,54.621 L 84.15,55.971 L 82.23,56.821 L 81.49,58.751 L 79.3,59.621 L 77.85,59.181 L 74.66,62.351 L 76.37,63.151 L 77.84,64.961 L 79.21,68.241 L 78.42,69.381 L 78.54,70.871 L 76.63,71.871 L 76.07,73.301 L 72.35,74.171 L 71.81,76.161 L 72.48,78.271 L 71.32,79.101 L 71.2,80.621 L 70.09,81.791 L 65.94,81.671 L 64.47,83.251 L 64.37,86.881 L 63.65,87.561 L 61.58,86.831 L 60.41,87.491 L 57.94,85.881 L 56.34,87.031 L 55.7,85.101 L 54.38,84.561 L 53.47,83.081 L 49.65,83.621 L 49.07,82.451 L 47.49,82.521 L 47.19,84.651 L 44.97,84.231 L 43.62,85.281 L 43.66,86.271 L 39.21,89.071 L 34.49,87.231 L 32.66,89.651 L 30.53,89.711 L 29.29,91.821 L 27.43,90.321 L 24.86,91.871 L 21.7,87.071 L 19.64,88.811 L 19.32,90.871 L 17.01,91.681 L 16.48,92.711 L 14.99,93.181 L 13.2,92.561 L 12.47,93.751 L 11.48,93.111 L 10.29,93.451 L 9.28,97.591 L 10.04,100.541 L 9.67,101.741 L 12.19,104.651 L 14.64,105.571 L 15.16,107.021 L 17.76,106.841 L 19.5,107.891 L 18.33,111.681 L 19.28,112.681 L 19.51,117.741 L 22.3,118.501 L 22.03,120.131 Z"></path>
<path class="macroarea" data-area="northeast" aria-label="Nord-Est" d="M 134.25,175.071 L 134.57,177.091 L 132.82,177.201 L 132.33,177.011 L 132.36,182.091 L 134.62,181.651 L 135.21,182.281 L 134.87,183.121 L 136.97,183.471 L 137.41,182.421 L 140.56,184.971 L 143,183.181 L 143.79,184.911 L 147.02,186.021 L 147.88,188.111 L 147.4,191.531 L 146.08,191.741 L 144.54,196.251 L 146.19,195.861 L 146.45,197.031 L 147.39,195.901 L 150.17,195.631 L 150.52,194.671 L 151.93,195.541 L 152.98,194.891 L 155.68,196.881 L 157.1,200.201 L 160.7,198.111 L 164.11,192.741 L 169.46,192.151 L 171.89,193.021 L 172.39,194.261 L 173.44,194.471 L 172.9,197.091 L 174.03,198.351 L 178.31,201.291 L 180.75,200.781 L 186.38,206.731 L 188.76,205.541 L 190.95,206.771 L 192.55,206.801 L 195.5,209.841 L 197.17,209.551 L 198.39,210.221 L 198.34,211.601 L 200.08,213.201 L 200.32,214.751 L 203.74,217.801 L 205.41,217.381 L 205.34,216.031 L 206.34,214.801 L 211.91,214.931 L 216.88,218.961 L 219.16,219.461 L 219.84,220.371 L 219.52,221.321 L 220.18,221.621 L 225.04,216.161 L 225.44,217.071 L 224.82,218.111 L 226.37,219.261 L 229.13,219.581 L 232.47,218.131 L 235.56,219.021 L 238.1,218.861 L 237.85,217.781 L 234.92,216.081 L 235.03,215.141 L 239.02,215.001 L 241.3,212.931 L 241.5,211.861 L 243.99,211.601 L 246.45,209.211 L 247.78,210.411 L 248.12,212.551 L 249.51,212.931 L 251.24,214.901 L 252.44,215.161 L 253.47,214.161 L 256.07,214.691 L 256.26,215.731 L 254.81,217.831 L 257.46,218.191 L 262.93,217.091 L 262.59,219.781 L 260.56,221.971 L 260.13,223.961 L 258.45,224.601 L 258.65,225.691 L 257.98,225.601 L 257.73,226.751 L 259.9,228.831 L 259.57,230.461 L 261.39,231.681 L 261.12,234.741 L 264.7,236.741 L 266.7,239.151 L 271.36,239.361 L 271.88,240.651 L 273.23,240.831 L 273.44,241.801 L 275.07,242.851 L 276.13,242.431 L 277.59,243.331 L 278.51,243.081 L 279.62,244.351 L 281.34,243.451 L 282.75,243.611 L 284.19,242.811 L 285.74,245.121 L 286.57,243.151 L 288.6,243.521 L 290.24,242.631 L 290.28,242.661 L 290.48,240.491 L 293.08,238.401 L 294.09,234.931 L 296.08,234.141 L 296.42,234.961 L 298.04,234.971 L 296.83,232.751 L 296.55,229.151 L 298.21,229.111 L 301.91,226.631 L 302.23,230.381 L 301.1,231.941 L 303.37,233.261 L 303.37,235.401 L 306.09,234.271 L 306.78,236.781 L 307.58,237.091 L 307.39,238.131 L 310.31,238.491 L 310.85,236.391 L 313.37,235.401 L 313.14,231.271 L 314.31,228.181 L 311.52,227.161 L 305.55,220.731 L 303.03,219.041 L 296.32,211.221 L 294.56,207.691 L 292.51,200.541 L 292.3,197.151 L 290.53,192.391 L 290.64,183.551 L 288.68,179.721 L 288.2,176.411 L 288.79,171.431 L 290.45,167.061 L 289.19,167.561 L 290.92,165.281 L 292.11,165.641 L 293.3,167.481 L 293.935,167.314 L 296.29,169.191 L 296.4,167.751 L 297.72,167.881 L 297.66,167.161 L 297.01,167.611 L 296.23,166.951 L 296.61,164.881 L 295.74,163.791 L 296.49,162.071 L 297.41,161.691 L 298.43,162.131 L 298.09,164.991 L 299.69,165.541 L 299.65,162.691 L 300.72,161.711 L 301.38,157.241 L 301.059,156.84 L 301.022,156.793 L 297.08,151.871 L 296.59,151.841 L 297.03,153.601 L 296.48,153.911 L 295.97,153.771 L 296.21,152.661 L 296.076,152.759 L 295.35,153.291 L 294.44,152.731 L 295.24,151.781 L 295.75,152.121 L 294.17,149.021 L 292.73,147.801 L 293.02,142.501 L 291.74,141.051 L 291.17,138.531 L 292.25,137.461 L 290.89,137.041 L 292.45,130.551 L 293.53,130.151 L 292.7,129.761 L 292.8,128.681 L 294.24,125.871 L 296.16,123.291 L 297.83,124.131 L 299.36,122.161 L 315.28,114.751 L 321.54,110.841 L 322.49,109.551 L 325.49,109.161 L 325.97,107.801 L 326.88,108.151 L 326.79,108.901 L 331.71,108.561 L 332.27,107.791 L 332.21,107.757 L 335.1,103.321 L 339.33,102.201 L 339.42,102.271 L 339.73,102.271 L 341.57,102.571 L 346.7,105.331 L 349.12,105.101 L 351.24,103.041 L 352.04,103.311 L 355.4,101.691 L 353.64,100.271 L 353.83,98.611 L 355.2,97.131 L 355.76,97.931 L 356.89,97.561 L 359.39,98.291 L 365.54,104.881 L 366.26,106.941 L 365.03,107.881 L 365.62,108.541 L 366.63,108.321 L 367.09,109.881 L 368.52,109.831 L 367.31,110.791 L 364.6,109.941 L 363.82,110.361 L 363.91,111.291 L 365.41,110.921 L 367.88,112.221 L 370.04,112.081 L 374.16,108.401 L 371.37,106.371 L 367.77,100.081 L 365.25,99.411 L 361.27,96.041 L 358.89,96.421 L 357.56,95.531 L 356.52,92.271 L 359.66,86.211 L 359.94,82.731 L 357.36,82.391 L 356.03,83.881 L 354.39,84.111 L 351.34,81.261 L 352.91,79.651 L 352.61,77.381 L 356.38,74.991 L 359.95,71.541 L 360.98,68.321 L 359.56,67.511 L 356.36,68.011 L 355.72,66.531 L 354.13,65.481 L 352.7,65.721 L 351.71,65.011 L 349.9,64.951 L 349.97,65.871 L 348.14,66.051 L 348.72,64.341 L 346.25,59.771 L 349.61,57.691 L 349.59,55.021 L 351.16,54.951 L 356.04,52.191 L 357.41,49.341 L 360.33,48.601 L 362.23,49.251 L 363.73,43.151 L 358.75,41.581 L 356.35,41.871 L 355.75,40.851 L 353.54,41.181 L 352.77,39.741 L 348.87,40.441 L 347.91,40.131 L 348.01,39.331 L 346.17,38.811 L 346.06,39.721 L 344.73,39.571 L 343.55,40.851 L 341,40.141 L 339.3,40.851 L 335.64,38.091 L 331.47,37.071 L 329.53,37.611 L 323.38,36.421 L 319.27,36.721 L 318.57,36.351 L 318.57,34.921 L 316.64,34.281 L 314.89,33.631 L 313.261,34.529 L 312.34,33.401 L 310.27,32.661 L 304.73,33.221 L 301.89,31.271 L 300.671,31.348 L 295.34,28.271 L 293.97,24.011 L 290.35,23.361 L 290.41,21.041 L 291.54,19.191 L 289.96,15.971 L 288.2,15.561 L 286.83,16.631 L 285.39,14.311 L 283.12,13.881 L 284.42,11.961 L 282.82,10.441 L 281.97,6.641 L 283.29,5.371 L 286.26,5.061 L 286.8,2.891 L 287.96,2.071 L 286.23,0.711 L 285.14,0.271 L 281.76,1.701 L 280.69,1.311 L 279.55,2.751 L 277.72,2.561 L 276.72,3.661 L 274.49,3.471 L 273.06,4.621 L 271.45,4.701 L 267.43,7.801 L 264.64,7.931 L 262.86,9.581 L 261.83,9.291 L 260.96,7.871 L 258.56,7.811 L 256.28,6.291 L 252.08,8.531 L 249.15,6.411 L 247.15,9.131 L 245.28,9.921 L 242.89,7.971 L 241.82,8.441 L 240.97,7.861 L 235.2,10.091 L 234.28,9.481 L 233.03,9.851 L 232.89,11.801 L 231.71,12.681 L 230.4,12.501 L 229.5,13.801 L 229.64,15.601 L 228.21,18.221 L 228.83,20.661 L 226.54,21.861 L 225.6,24.721 L 220.35,24.161 L 218.69,25.031 L 216.21,23.581 L 215.03,24.071 L 213.63,22.551 L 212,23.371 L 210.66,23.141 L 212.41,20.501 L 211.96,19.691 L 208.79,18.401 L 208.8,17.391 L 207.44,16.621 L 201.35,19.461 L 201.72,18.581 L 198.92,18.781 L 197.8,17.881 L 196.34,22.021 L 194.9,22.821 L 196.12,25.391 L 193.93,27.131 L 194.68,28.881 L 193.14,30.791 L 193.98,34.441 L 196.27,34.131 L 198.55,36.211 L 197.66,41.281 L 196.66,42.171 L 197.8,44.861 L 201.57,45.161 L 204.21,46.931 L 205.24,48.291 L 205.01,50.491 L 205.85,51.871 L 204.36,53.431 L 202.39,53.551 L 199.8,56.091 L 202.44,57.361 L 203.04,59.381 L 202.16,60.651 L 202.97,61.121 L 203.48,63.251 L 201.21,67.411 L 202.27,69.001 L 201.34,73.421 L 198.01,77.491 L 198.37,79.391 L 197.17,80.341 L 196.6,82.171 L 196.65,83.171 L 198.39,83.491 L 198.23,85.521 L 199.53,87.511 L 198.62,89.611 L 199.14,93.921 L 201.39,94.881 L 200.7,96.271 L 201.11,97.141 L 202.43,97.271 L 204.58,95.931 L 206.55,95.871 L 207.03,93.721 L 211.04,92.911 L 212.31,93.901 L 212.7,93.031 L 216.782,93.824 L 205.64,110.401 L 206.77,122.151 L 206.36,124.131 L 207.19,124.311 L 207.89,123.501 L 210.35,124.631 L 209.39,127.201 L 210.35,127.951 L 209.05,128.921 L 210.04,130.411 L 209.36,132.321 L 210.85,132.701 L 211.36,133.691 L 213.77,131.681 L 215.73,133.601 L 216.85,135.951 L 219.49,136.541 L 219.6,137.221 L 221.42,137.701 L 221.32,139.001 L 224.19,140.301 L 224.98,141.521 L 224.6,143.231 L 226.21,142.911 L 227.08,143.461 L 226.12,145.341 L 228.44,147.291 L 229.64,147.511 L 229.88,146.241 L 231.24,146.971 L 232.17,145.291 L 235.17,146.411 L 233.9,147.431 L 234.31,148.441 L 233.72,150.061 L 236.85,151.221 L 238.27,150.371 L 238.27,152.831 L 246.25,157.111 L 246.481,158.143 L 240.3,157.231 L 238.63,158.821 L 237.15,157.771 L 236.79,158.431 L 232.9,158.741 L 232.35,159.391 L 231.13,157.841 L 228.48,157.201 L 227.55,157.991 L 224.43,157.731 L 222.11,158.921 L 221.88,160.071 L 220.53,159.851 L 219.07,160.751 L 219.27,160.171 L 217.93,160.341 L 217.85,159.591 L 216.97,159.751 L 216.22,158.961 L 211.81,158.241 L 210.84,155.121 L 209.04,157.191 L 208.59,155.571 L 205.73,159.691 L 204.28,160.531 L 200.34,160.701 L 195.77,158.471 L 194.3,155.551 L 191.85,156.891 L 189.02,154.621 L 187.42,154.581 L 184.42,152.211 L 182.2,152.271 L 181.67,151.341 L 178.34,152.901 L 177.54,151.161 L 176.05,151.511 L 175.98,150.291 L 174.46,149.061 L 174.9,147.571 L 173.02,145.121 L 172.13,145.031 L 169.25,147.241 L 169.63,145.051 L 168.9,144.441 L 167.1,145.901 L 168.23,147.491 L 168.03,148.651 L 167.15,149.041 L 166.14,147.561 L 165.14,147.531 L 164.21,150.741 L 163.84,148.881 L 161.99,147.931 L 161.16,146.391 L 160.29,146.661 L 161.04,147.751 L 160.54,148.761 L 158.92,150.181 L 154.74,148.391 L 154.89,145.891 L 153.97,144.641 L 153.32,146.551 L 152.04,147.091 L 150.44,144.951 L 149.71,145.071 L 150.34,147.801 L 149.21,148.831 L 147.64,146.971 L 144.8,147.691 L 144.48,148.501 L 143.25,148.321 L 143.36,148.991 L 141.31,150.831 L 141.43,153.011 L 139.79,154.761 L 138.42,158.811 L 136.76,159.231 L 137.36,160.251 L 136.11,161.891 L 137.86,163.501 L 138.59,163.101 L 139.56,163.921 L 140.63,167.171 L 136.78,171.051 L 137.08,172.151 L 138.82,173.081 L 138.97,174.301 L 138.08,175.341 L 138.79,176.731 L 135.56,177.581 Z M 301.08,156.781 L 302.016,156.571 L 302.027,156.569 L 302.027,156.569 L 303.45,156.251 L 302.26,155.351 L 301.7,155.031 Z M 302.59,156.801 L 303.49,157.171 L 302.55,158.221 L 303.9,157.451 L 304.19,156.621 Z"></path>
<path class="macroarea" data-area="center" aria-label="Centro" d="M 163.55,205.851 L 166.14,206.911 L 166.23,209.481 L 167.04,210.181 L 166.61,212.911 L 168.69,211.161 L 170.16,212.181 L 169.41,212.241 L 168.17,214.221 L 172.1,214.081 L 172.29,216.441 L 173.23,217.831 L 172.74,219.061 L 174.52,217.561 L 176.89,219.031 L 176.62,220.411 L 174.39,222.951 L 176.55,223.991 L 180.67,227.641 L 185.71,235.331 L 187.55,244.061 L 187.8,248.071 L 187.2,248.951 L 189.06,256.671 L 188.74,259.031 L 190.36,263.361 L 192.98,265.341 L 194.13,268.501 L 195.21,268.601 L 197.04,274.051 L 199.2,276.311 L 200.37,279.211 L 201.03,290.331 L 199.91,296.541 L 198.22,297.341 L 198.81,301.281 L 201.12,302.061 L 201.51,300.291 L 205.24,299.711 L 208.1,300.021 L 211.3,301.511 L 213.09,302.851 L 213.75,304.321 L 212.86,305.611 L 212.72,309.261 L 210.88,310.391 L 213.96,312.411 L 217.35,312.811 L 221.78,314.591 L 223.99,316.881 L 224.92,320.601 L 229.06,322.371 L 228.85,323.351 L 229.95,324.421 L 230.93,327.301 L 232.69,326.941 L 234.42,330.511 L 234.11,333.631 L 233.1,335.691 L 230.86,335.881 L 230.01,335.011 L 229.03,336.241 L 229.47,338.821 L 231.09,339.331 L 232.45,341.031 L 234.27,340.881 L 234.5,339.661 L 235.49,339.181 L 235.36,337.701 L 238.09,336.981 L 239.26,337.931 L 247.63,339.881 L 247.649,339.838 L 252.7,342.251 L 258.14,346.681 L 260.39,349.841 L 262.51,354.111 L 262.69,355.991 L 265.73,360.001 L 267.4,363.891 L 271.67,363.261 L 274.01,364.741 L 274.58,365.951 L 277.14,366.931 L 278.44,368.871 L 283.27,371.701 L 286.4,377.451 L 287.33,383.351 L 293.54,386.181 L 297.22,389.301 L 304.3,397.751 L 307.62,403.611 L 308.49,403.981 L 308.63,403.271 L 310.33,402.991 L 315.15,406.221 L 315.96,405.591 L 319.33,405.931 L 322.93,407.921 L 326.59,411.811 L 329.52,418.541 L 331.93,418.731 L 335.24,415.581 L 338.16,414.651 L 340.48,414.771 L 342.12,413.771 L 346.46,414.811 L 355.4,420.021 L 357.44,419.951 L 356.54,419.351 L 356.43,417.891 L 359.38,416.231 L 362.19,417.381 L 363.41,416.781 L 366.22,418.801 L 366.77,417.481 L 369.77,416.901 L 370.27,416.131 L 369.62,415.891 L 369.72,414.861 L 372.83,413.741 L 371.8,409.271 L 372.61,407.771 L 371.29,405.551 L 373.44,405.181 L 376.48,402.411 L 377.23,402.441 L 377.99,401.141 L 376.98,400.291 L 379.91,398.281 L 378.69,397.221 L 379.54,397.041 L 379.76,396.091 L 378.39,394.581 L 379.07,393.941 L 378.97,392.571 L 377.57,388.981 L 375.58,387.261 L 373.08,383.991 L 371.12,384.181 L 368.72,382.761 L 367.7,383.421 L 366.37,383.021 L 364.62,379.711 L 363.29,380.441 L 362.22,379.261 L 360.45,378.771 L 359.38,380.861 L 355.33,382.221 L 353.85,381.291 L 353.11,379.481 L 351.27,379.051 L 349.79,377.621 L 348.06,376.921 L 346.66,378.281 L 345.66,374.651 L 346.94,372.361 L 345.94,370.951 L 344.92,371.141 L 342.94,368.861 L 342.05,369.231 L 334.4,364.741 L 332.37,364.021 L 332.35,365.261 L 329.96,364.621 L 328.56,362.371 L 328.71,357.451 L 329.48,357.811 L 331.56,356.031 L 331.61,353.631 L 333.34,353.501 L 339.9,357.031 L 341.14,356.261 L 342.83,356.881 L 343.9,354.651 L 345.39,354.361 L 344.87,353.661 L 346.7,353.331 L 344.76,352.111 L 344.46,350.481 L 342.04,349.651 L 339.46,347.111 L 338.81,343.821 L 335.07,341.351 L 337.16,339.011 L 333.17,335.271 L 336.35,332.851 L 336.25,330.471 L 335.25,328.611 L 336.28,328.041 L 337.04,325.281 L 339.79,326.311 L 340.4,325.581 L 341.75,325.591 L 342.33,326.561 L 343.83,325.791 L 346.09,326.111 L 347.44,324.941 L 348.2,321.501 L 346.21,320.871 L 345.06,319.511 L 345.591,317.851 L 347.26,318.341 L 349.14,317.011 L 349.7,317.471 L 350.3,315.091 L 352.67,314.701 L 352.97,312.211 L 354.3,310.731 L 354.55,309.281 L 356.63,310.421 L 358.99,309.311 L 359.66,310.261 L 361.01,310.091 L 363.02,309.151 L 363.48,306.941 L 364.16,306.561 L 366.94,306.371 L 369.06,304.961 L 374.05,303.891 L 371.85,297.191 L 370.31,289.061 L 359.05,261.151 L 359.22,257.901 L 359.22,257.901 L 356.45,256.291 L 355.27,253.971 L 353.19,252.241 L 352.35,253.761 L 350.29,253.511 L 342.73,249.301 L 322.24,231.331 L 316.75,228.431 L 314.32,228.191 L 313.15,231.281 L 313.38,235.411 L 310.86,236.401 L 310.32,238.501 L 307.4,238.141 L 307.59,237.101 L 306.79,236.791 L 306.1,234.281 L 303.38,235.411 L 303.38,233.271 L 301.11,231.951 L 300.71,233.301 L 296.906,232.872 L 298.06,234.991 L 296.44,234.981 L 296.1,234.161 L 294.11,234.951 L 293.1,238.421 L 290.5,240.511 L 290.299,242.696 L 288.65,243.591 L 286.61,243.211 L 285.78,245.181 L 284.23,242.871 L 282.79,243.671 L 281.37,243.511 L 279.65,244.411 L 278.54,243.141 L 277.62,243.391 L 276.16,242.491 L 275.1,242.911 L 273.46,241.861 L 273.25,240.891 L 271.9,240.711 L 271.38,239.411 L 266.71,239.201 L 264.71,236.791 L 261.13,234.791 L 261.4,231.731 L 259.58,230.511 L 259.91,228.881 L 257.74,226.801 L 257.99,225.651 L 258.66,225.741 L 258.46,224.651 L 260.14,224.011 L 260.57,222.021 L 262.6,219.831 L 262.94,217.141 L 257.47,218.241 L 254.81,217.881 L 256.26,215.781 L 256.06,214.741 L 253.46,214.211 L 252.43,215.211 L 251.22,214.951 L 249.49,212.981 L 248.09,212.601 L 247.75,210.451 L 246.42,209.241 L 243.96,211.631 L 241.47,211.891 L 241.27,212.961 L 238.99,215.031 L 235,215.171 L 234.89,216.111 L 237.82,217.811 L 238.07,218.891 L 235.53,219.051 L 232.44,218.161 L 229.1,219.611 L 226.34,219.291 L 224.79,218.141 L 225.4,217.101 L 225,216.191 L 220.14,221.651 L 219.48,221.351 L 219.8,220.401 L 219.12,219.491 L 216.84,218.981 L 211.87,214.951 L 206.3,214.821 L 205.3,216.051 L 205.37,217.391 L 203.7,217.811 L 200.28,214.761 L 200.04,213.211 L 198.3,211.611 L 198.35,210.231 L 197.13,209.561 L 195.46,209.851 L 192.51,206.811 L 190.91,206.781 L 188.72,205.551 L 186.34,206.741 L 180.71,200.781 L 178.27,201.291 L 173.99,198.351 L 172.86,197.091 L 173.4,194.461 L 172.35,194.241 L 171.85,193.001 L 169.41,192.131 L 164.06,192.721 L 160.65,198.081 L 157.05,200.171 L 158.51,200.141 L 159.52,202.721 Z M 325.69,441.141 L 325.12,440.951 L 325.37,439.631 L 326.75,438.461 L 324.51,439.471 L 324.69,442.291 Z M 284.9,239.501 L 284.63,240.621 L 286,242.211 L 288.18,241.081 L 287.88,239.981 L 287.8,239.821 L 287.67,239.521 Z M 218.77,338.751 L 217.73,341.231 L 218.55,341.361 L 220.52,343.801 L 220.74,340.781 L 218.77,338.751 Z M 189.66,310.041 L 190.42,309.071 L 186.79,308.201 L 187.4,309.041 L 186.75,309.511 L 187.11,310.081 L 186.04,310.361 L 185.87,311.151 L 183.33,309.601 L 180.48,309.671 L 178.64,311.081 L 178.54,312.661 L 179.57,314.411 L 181.38,315.521 L 181.19,314.991 L 182.84,314.731 L 185.56,315.471 L 185.78,313.821 L 188.01,314.811 L 188.84,313.151 L 189.74,314.751 L 189.67,313.081 L 190.89,312.841 L 191.66,313.211 L 192.58,315.941 L 195.05,316.741 L 195.6,314.861 L 193.15,313.161 L 195.67,311.801 L 195.35,309.131 L 196.12,307.001 L 194.79,305.601 L 194.23,305.371 L 191.56,310.381 Z M 190.3,343.301 L 189.44,341.501 L 188.37,341.711 L 188.53,343.861 L 189.54,344.031 Z M 178.54,324.981 L 177.46,322.871 L 177.1,324.811 L 175.67,325.481 L 177.89,326.461 Z M 162.65,294.921 L 163.57,296.251 L 165.4,293.831 L 164.71,291.851 L 164.39,291.321 L 163.16,292.621 Z"></path>
<path class="macroarea" data-area="south" aria-label="Sud e Isole" d="M 364.12,306.451 L 363.44,306.831 L 362.98,309.041 L 360.97,309.981 L 359.62,310.151 L 358.95,309.211 L 356.58,310.321 L 354.5,309.191 L 354.26,310.631 L 352.92,312.121 L 352.62,314.611 L 350.25,315.001 L 349.65,317.371 L 349.08,316.911 L 347.2,318.241 L 345.54,317.761 L 345,319.441 L 346.15,320.811 L 348.14,321.441 L 347.38,324.871 L 346.03,326.041 L 343.77,325.731 L 342.27,326.501 L 341.69,325.521 L 340.34,325.521 L 339.73,326.251 L 336.98,325.211 L 336.22,327.971 L 335.19,328.551 L 336.19,330.411 L 336.29,332.791 L 333.11,335.211 L 337.1,338.951 L 335.02,341.281 L 338.76,343.761 L 339.41,347.041 L 341.99,349.581 L 344.42,350.421 L 344.72,352.051 L 346.65,353.271 L 344.82,353.601 L 345.35,354.311 L 343.85,354.601 L 342.78,356.831 L 341.09,356.211 L 339.85,356.981 L 333.29,353.451 L 331.56,353.581 L 331.51,355.971 L 329.43,357.751 L 328.65,357.391 L 328.5,362.311 L 329.91,364.561 L 332.29,365.201 L 332.31,363.961 L 334.34,364.681 L 341.99,369.171 L 342.89,368.801 L 344.87,371.081 L 345.88,370.901 L 346.88,372.311 L 345.6,374.601 L 346.6,378.231 L 348,376.871 L 349.73,377.571 L 351.21,379.001 L 353.05,379.431 L 353.78,381.241 L 355.26,382.171 L 359.31,380.821 L 360.37,378.731 L 362.15,379.221 L 363.22,380.401 L 364.54,379.671 L 366.29,382.981 L 367.62,383.381 L 368.65,382.731 L 371.05,384.141 L 373.01,383.951 L 375.5,387.221 L 375.5,387.221 L 375.5,387.221 L 377.49,388.941 L 378.89,392.531 L 378.99,393.901 L 378.31,394.531 L 379.68,396.041 L 379.47,396.991 L 378.62,397.171 L 379.84,398.231 L 376.98,400.291 L 377.99,401.141 L 377.23,402.431 L 376.55,402.411 L 373.5,405.181 L 371.35,405.551 L 372.67,407.771 L 371.85,409.271 L 372.88,413.741 L 369.77,414.851 L 369.67,415.881 L 370.32,416.121 L 369.82,416.891 L 366.82,417.471 L 366.27,418.791 L 369.46,422.001 L 373.02,427.821 L 374.42,432.651 L 376.83,435.251 L 376.89,435.401 L 379.54,439.631 L 380.66,443.561 L 380.67,448.081 L 382.92,448.841 L 382.07,446.151 L 383.17,445.371 L 386.52,446.331 L 387.23,447.351 L 386.45,447.731 L 387.92,447.951 L 389.76,445.571 L 392.41,444.461 L 395.17,446.301 L 398.71,450.191 L 401.81,451.171 L 402.89,454.341 L 399.31,456.801 L 398.88,458.271 L 395.72,458.901 L 394.94,463.001 L 403,459.131 L 405.43,460.461 L 407.78,460.051 L 410.49,457.651 L 413.83,458.621 L 415.19,456.491 L 417.92,456.071 L 423.25,461.671 L 429.3,474.231 L 429.29,477.171 L 426.68,478.671 L 426.58,482.681 L 424.6,484.181 L 425.22,485.241 L 428.9,486.381 L 431.55,489.681 L 436.23,489.621 L 438.74,492.651 L 440.22,492.871 L 443.53,496.051 L 444.22,498.281 L 443.36,498.931 L 443.55,499.561 L 445.76,499.011 L 447.79,500.991 L 451.18,501.561 L 455.42,496.691 L 459,495.751 L 461.78,496.131 L 462.635,498.079 L 462.6,498.101 L 464.28,499.081 L 464.42,500.561 L 466.52,502.481 L 468.31,506.031 L 470.26,510.131 L 469.11,512.071 L 470.07,513.761 L 471.47,522.551 L 472.38,523.301 L 474.5,530.651 L 477.14,532.541 L 480.79,538.241 L 483.54,547.311 L 484.32,557.771 L 485.94,565.041 L 488.96,570.621 L 492.05,572.121 L 492.34,577.241 L 490.36,583.721 L 487.94,585.621 L 486.21,586.121 L 482.79,585.101 L 480.33,585.401 L 478.59,587.231 L 474.37,588.631 L 472.56,590.351 L 472.08,592.171 L 477.4,596.931 L 476.65,601.801 L 475.92,603.741 L 474.45,605.081 L 473.65,607.821 L 472.5,608.861 L 472.04,612.041 L 470.79,614.211 L 468.21,615.671 L 466.32,615.731 L 462.22,617.411 L 462.17,620.131 L 463.29,623.491 L 462.03,626.391 L 463.3,629.781 L 462.23,631.301 L 464.4,635.371 L 468.64,637.781 L 476.83,637.011 L 480.86,637.951 L 484.2,637.411 L 485.89,635.311 L 488.43,630.481 L 489.44,623.701 L 497.44,613.581 L 504.68,610.521 L 510.33,604.641 L 510.79,601.821 L 509.48,588.161 L 508.33,586.121 L 511.98,579.571 L 520.73,574.151 L 526.45,572.021 L 531.14,571.281 L 533.28,573.451 L 535.39,572.691 L 536.8,573.201 L 537.07,574.301 L 540.89,570.301 L 540.64,567.501 L 542.8,565.541 L 539.74,564.091 L 539.02,562.951 L 539.33,562.001 L 537.89,560.121 L 539.85,553.571 L 537.68,550.391 L 537.93,546.701 L 540.29,540.821 L 536.37,539.471 L 534.23,537.411 L 533.45,535.351 L 529.98,534.461 L 525.29,531.591 L 520.57,526.261 L 512.53,526.141 L 507.45,523.131 L 508,519.671 L 505.99,517.351 L 505.95,514.431 L 508.45,509.801 L 513.05,503.971 L 511.69,498.181 L 512.03,495.551 L 513.94,493.111 L 516.2,491.461 L 521.01,481.101 L 524.957,475.451 L 524.99,475.531 L 527.12,472.021 L 530.69,468.861 L 534.19,466.961 L 538.01,466.391 L 540.86,467.461 L 541.44,469.081 L 543.73,468.971 L 545.08,470.611 L 544.86,472.091 L 542.94,472.931 L 542.64,473.841 L 543.76,473.811 L 552.44,478.831 L 555.14,479.121 L 558.29,481.401 L 567.07,480.721 L 576.14,482.051 L 578.66,484.141 L 579.68,486.331 L 579.35,488.241 L 583.96,493.971 L 583.55,496.471 L 582.04,497.581 L 584.12,498.701 L 584.3,500.651 L 583.09,501.151 L 585.81,505.891 L 592.24,511.121 L 597.34,512.191 L 601.17,515.151 L 602.38,514.831 L 603.49,513.271 L 603.46,507.271 L 604.34,502.711 L 605.78,499.541 L 607.77,498.161 L 608.26,495.781 L 609.98,494.201 L 609.39,492.551 L 609.9,492.071 L 608.48,491.201 L 606.93,487.581 L 607.16,485.821 L 605.16,481.361 L 595.78,471.301 L 589.9,468.021 L 587.52,465.851 L 585.27,463.071 L 585.81,461.031 L 584.25,459.101 L 584.58,458.011 L 580.99,457.891 L 581.48,457.041 L 580.36,455.191 L 574.75,454.521 L 568.55,450.221 L 556.74,445.481 L 552.18,441.191 L 550.18,440.281 L 546.55,435.851 L 536.91,429.541 L 530.06,427.301 L 525.87,425.481 L 525.62,424.751 L 524.68,425.161 L 524.23,424.411 L 522.43,424.361 L 520.77,422.931 L 510.84,419.771 L 502.41,414.681 L 494.31,411.631 L 491.33,409.291 L 481.96,404.951 L 478.5,402.441 L 476,397.711 L 475.85,392.021 L 484.24,386.771 L 484.53,385.691 L 489.26,382.531 L 490.62,381.171 L 491.01,379.201 L 491.09,377.601 L 489.83,375.211 L 490.5,373.671 L 485.59,369.931 L 481.74,369.181 L 469.04,371.481 L 464.91,371.691 L 461.54,370.741 L 451.61,372.591 L 448.42,372.471 L 447.17,371.451 L 436.636,370.804 L 436.63,370.721 L 433.47,369.491 L 429.5,365.151 L 424.51,364.221 L 419.07,361.331 L 418.62,360.941 L 418.62,360.941 L 418.62,360.941 L 418.62,360.941 L 415.19,358.511 L 414.98,353.661 L 409.82,351.831 L 404.26,348.131 L 403.93,346.781 L 400.26,343.251 L 399.39,340.921 L 391.15,334.771 L 384.14,327.061 L 377.87,315.881 L 375.63,310.371 L 374.27,304.031 L 374,303.791 L 369.01,304.861 L 366.9,306.271 Z M 297.83,639.321 L 298.77,642.601 L 299.15,638.611 Z M 299.342,638.508 L 300.77,640.671 L 299.63,644.281 L 297.68,645.401 L 300.12,649.071 L 300.31,651.961 L 302.53,654.531 L 304.85,654.381 L 307.02,655.761 L 310.44,660.961 L 315.81,659.631 L 322.87,659.881 L 325.17,660.671 L 328.13,665.121 L 331.04,664.431 L 335.6,665.201 L 340.03,669.501 L 341.09,671.891 L 342.37,671.981 L 343.69,673.551 L 347.77,675.571 L 350.18,678.091 L 353.28,678.181 L 354.04,679.021 L 355.56,678.631 L 360.03,682.301 L 360.98,684.421 L 365.6,687.281 L 369.29,687.611 L 371.99,690.361 L 373.5,690.791 L 376.7,689.941 L 381.96,689.821 L 386.87,690.911 L 391.86,693.261 L 397.88,699.361 L 401.09,705.121 L 401.91,708.601 L 403.68,710.511 L 408.55,711.141 L 411.07,712.141 L 413.76,714.691 L 416.49,714.701 L 418.42,715.761 L 423.37,714.051 L 425.23,714.531 L 427.48,716.451 L 430.57,715.891 L 433.77,719.281 L 435.55,717.591 L 436.36,718.091 L 436.82,716.941 L 434.51,709.651 L 437.47,702.351 L 440.36,699.161 L 443.04,698.521 L 443.77,696.361 L 445.06,695.841 L 446.85,696.641 L 445.41,694.151 L 444.44,694.721 L 443.74,694.281 L 443.83,692.691 L 444.91,693.101 L 444.81,690.041 L 443.07,690.121 L 441.64,689.311 L 440.97,687.681 L 441.35,687.121 L 442.14,687.451 L 441.57,686.621 L 440.2,687.071 L 439.2,684.731 L 439.53,681.521 L 440.68,681.121 L 441.14,682.991 L 441.33,681.321 L 442.28,681.981 L 442.83,681.221 L 440.19,677.991 L 439.51,678.661 L 438,678.281 L 434.66,676.211 L 434.07,665.611 L 435.61,662.741 L 438.73,659.791 L 438.66,656.271 L 439.88,654.711 L 440.9,651.131 L 440.17,649.411 L 440.55,648.291 L 443.85,644.031 L 443.65,643.111 L 445.31,641.981 L 445.34,640.331 L 455.1,627.601 L 459.22,620.011 L 458.38,620.181 L 459.15,617.291 L 460.66,616.041 L 463.42,615.281 L 460.68,614.621 L 458.26,613.001 L 458.26,613.001 L 456.51,613.141 L 450.21,617.391 L 444.47,618.961 L 442.22,618.331 L 442.76,616.221 L 442.06,614.691 L 441.22,614.751 L 442.09,616.581 L 440.95,619.761 L 438.7,622.311 L 434.81,624.451 L 432.85,624.051 L 432.01,622.471 L 428.23,622.461 L 425.33,619.911 L 424.1,621.171 L 418.98,622.531 L 416.82,621.621 L 411.22,627.601 L 403,630.231 L 400.28,629.821 L 397.52,631.371 L 393.14,631.941 L 385.93,630.501 L 384.04,631.461 L 381.87,631.231 L 379.63,629.751 L 375.77,630.511 L 371.45,633.061 L 366.52,634.401 L 363.74,633.971 L 356.3,629.951 L 354.75,628.171 L 354.72,625.171 L 353.23,624.751 L 352.34,625.871 L 350.09,626.421 L 346.8,625.501 L 345.75,624.031 L 346.49,622.891 L 345.98,620.741 L 344.11,619.621 L 343.45,617.941 L 341.27,619.541 L 339.52,619.281 L 339.08,620.641 L 336.97,621.501 L 332.71,619.991 L 331.09,621.361 L 331.49,622.041 L 330.83,623.291 L 329.85,623.521 L 331.13,626.821 L 326.55,629.671 L 322.05,630.911 L 317.49,627.381 L 316.36,625.371 L 316.4,623.771 L 315.32,622.711 L 315.27,620.901 L 313.69,621.081 L 313.35,620.231 L 312.54,621.291 L 313.65,623.481 L 312.3,625.431 L 309.72,625.331 L 309.84,626.451 L 308.63,627.661 L 306.84,628.371 L 305.15,628.061 L 302.49,631.081 L 300.98,631.461 L 302.46,633.061 L 301.22,633.611 L 301.42,635.621 L 299.371,638.492 Z M 439.25,580.941 L 440.56,582.241 L 442.09,580.331 L 441.2,579.671 Z M 433.53,590.491 L 432.65,590.631 L 432.51,591.831 L 433.44,591.521 Z M 427.03,607.501 L 428.73,608.591 L 429.77,608.411 L 429.47,606.701 L 427.58,605.251 L 428.02,604.821 L 427.51,604.321 L 426.46,605.671 Z M 427.24,603.881 L 427.34,601.541 L 428.62,601.121 L 427.71,600.471 L 427.69,598.531 L 425.18,598.661 L 424.35,600.841 Z M 423.03,594.641 L 420.46,594.521 L 419.69,594.511 L 419.14,595.931 L 422.21,597.691 L 423,597.511 Z M 406.47,594.381 L 406.01,594.941 L 406.74,596.121 L 408.77,596.321 L 407.89,594.661 Z M 396.91,596.391 L 395.86,596.711 L 395.98,597.861 L 396.85,597.811 Z M 391.95,463.811 L 389.94,463.571 L 388.46,463.511 L 388.33,465.141 L 391.26,464.731 Z M 371.63,450.101 L 370.73,451.861 L 370.77,453.731 L 372.75,454.771 L 373.06,454.171 L 375.88,454.141 L 376.57,452.071 L 376.04,451.301 L 371.63,450.101 Z M 337.48,586.311 L 337.05,586.021 L 336.41,585.561 L 335.38,586.101 L 335.03,587.321 L 336.74,587.171 Z M 302.99,790.061 L 302.24,790.631 L 308.22,792.241 L 307.9,790.571 L 302.99,790.061 Z M 294.67,638.451 L 294.68,637.301 L 293.59,636.521 L 292.46,636.931 L 291.67,635.441 L 289.71,636.491 L 290.54,637.891 L 293,637.611 L 293.94,638.631 Z M 277.3,632.951 L 278,635.111 L 280.49,635.861 L 279.16,633.001 Z M 277.23,713.631 L 278.64,711.971 L 278.52,709.611 L 276.51,707.911 L 275.91,708.281 L 273.57,707.081 L 272.12,707.871 L 272.03,709.431 L 275.35,713.501 Z M 81.68,434.771 L 83.98,435.061 L 84.45,433.691 L 83.63,432.071 L 82.97,432.261 L 85.15,429.231 L 87.88,430.501 L 88.05,428.541 L 88.78,427.801 L 87.54,426.971 L 87.27,425.841 L 84.97,426.811 L 85.51,428.761 L 84.55,428.871 L 83.68,430.471 L 82.2,431.091 L 82.04,432.211 L 82.67,432.301 Z M 81.84,435.061 L 81.9,436.061 L 82.46,435.491 Z M 81.914,436.298 L 81.39,435.921 L 79.99,438.321 L 82.39,441.661 L 80.55,446.721 L 79.19,447.901 L 79.47,449.841 L 77.72,452.191 L 79.88,454.651 L 81.44,455.321 L 80.36,458.501 L 78.31,459.441 L 78.6,462.431 L 79.16,462.611 L 80.97,459.761 L 82.06,460.901 L 81.31,461.421 L 81.33,463.181 L 83.37,463.131 L 83.51,462.211 L 86.22,461.671 L 88.16,467.711 L 89.97,468.351 L 91.4,473.731 L 90.26,477.091 L 90.44,478.531 L 92.39,478.641 L 94.37,479.791 L 95.55,482.051 L 94.22,489.391 L 95.99,494.311 L 95.91,495.821 L 94.07,497.781 L 91.93,498.441 L 91.43,497.741 L 90.13,498.821 L 91.95,499.881 L 90.92,502.831 L 91.17,507.321 L 93.36,509.391 L 95.27,507.431 L 97.68,507.581 L 99.2,510.351 L 98.8,514.631 L 97.18,517.391 L 96.84,519.461 L 96.06,519.521 L 94.28,516.451 L 93.6,517.291 L 94.1,520.621 L 93.59,522.221 L 94.21,523.351 L 93.77,525.371 L 94.87,527.521 L 93.96,531.201 L 90.55,536.241 L 90.34,537.241 L 91.83,538.221 L 91.88,539.401 L 89.9,542.531 L 90.72,543.211 L 90.92,544.921 L 92.3,545.411 L 93.07,548.121 L 92.54,549.501 L 89.55,552.301 L 89.65,553.281 L 93.13,557.011 L 93.17,559.921 L 94.27,559.331 L 94.91,559.931 L 95.62,561.481 L 95.16,563.331 L 98.08,563.391 L 99.74,564.351 L 100.17,568.611 L 102.71,570.921 L 101.98,574.221 L 104.03,574.111 L 103.74,576.121 L 104.6,575.831 L 104.1,574.501 L 105.19,573.951 L 104.9,572.911 L 107.66,572.231 L 107.83,571.191 L 110.61,572.781 L 111.89,574.821 L 112.54,573.971 L 113.54,575.281 L 114.8,575.331 L 121.89,568.191 L 122.62,567.821 L 123.17,568.371 L 124.42,563.641 L 122.95,561.591 L 123,557.441 L 125.54,554.281 L 127.67,553.341 L 130.23,555.401 L 130.71,553.691 L 132.84,552.401 L 137.28,553.331 L 144.52,559.301 L 146.94,558.481 L 147.89,558.841 L 147.89,560.291 L 148.89,561.131 L 148.76,559.831 L 149.68,558.701 L 150.7,558.701 L 151.78,555.721 L 150.93,554.441 L 151.93,549.811 L 153,548.171 L 154.56,547.651 L 153.08,546.441 L 152.77,544.331 L 155.24,536.831 L 154.52,534.151 L 155.77,529.711 L 155.24,524.201 L 156.88,520.171 L 156.43,515.511 L 157.8,510.841 L 157.06,507.671 L 158.89,505.821 L 158.68,505.071 L 157.45,504.761 L 157.29,502.641 L 159.66,496.821 L 159.68,495.161 L 157.62,493.961 L 155.6,491.251 L 154.23,487.201 L 154.23,483.771 L 157.47,478.231 L 161.41,474.871 L 164.55,465.701 L 162.89,464.661 L 162.61,462.851 L 160.77,461.131 L 160.13,458.581 L 160.74,456.021 L 158.74,453.511 L 158.9,450.791 L 156.54,448.451 L 156.68,447.191 L 157.56,446.731 L 156.99,445.961 L 157.4,444.991 L 158.4,445.351 L 159.13,444.791 L 157.03,443.341 L 155.36,443.711 L 155.89,442.351 L 153.65,441.241 L 155.13,439.361 L 153.87,439.121 L 152.39,441.171 L 151.42,440.031 L 151.8,439.621 L 150.94,439.271 L 148.82,439.221 L 147.92,438.751 L 148.83,438.341 L 151.55,438.741 L 151.22,437.811 L 152.51,436.081 L 151.93,435.041 L 153.31,433.851 L 155.48,434.961 L 156.18,434.221 L 152.63,432.391 L 152.14,433.181 L 151.68,432.881 L 151.72,433.701 L 150.4,433.641 L 150.93,431.391 L 149.17,431.921 L 149,433.271 L 148.23,433.311 L 149,430.331 L 149.83,429.811 L 149.54,428.371 L 149.93,428.001 L 150.48,428.671 L 151.48,427.151 L 151.22,426.031 L 149.89,426.091 L 150.16,424.861 L 149.18,424.801 L 149.74,424.471 L 148.82,423.231 L 148.51,424.381 L 146.02,424.241 L 146.3,425.391 L 144.81,427.651 L 144.98,424.731 L 144.08,423.351 L 142.82,423.131 L 143.8,421.861 L 141.82,421.841 L 141.25,421.691 L 140.71,419.871 L 139.46,420.011 L 139.19,421.291 L 136.74,421.461 L 135.68,420.351 L 136.43,418.471 L 133.91,416.401 L 132.08,418.161 L 132.02,417.241 L 130.58,418.011 L 129.53,417.301 L 129.38,418.241 L 130.67,418.461 L 130,420.641 L 130.76,422.551 L 129.94,423.471 L 128.26,423.541 L 127.65,424.931 L 125.06,425.431 L 124.41,424.701 L 122.76,425.591 L 118.65,431.171 L 115.57,433.021 L 115.68,434.331 L 111.54,439.041 L 106.53,439.781 L 99.7,445.301 L 94.26,446.101 L 92.32,444.681 L 90.04,445.061 L 86.99,444.451 L 82.86,440.021 L 83.11,437.161 Z M 160.13,439.891 L 159.58,439.381 L 159.87,438.801 L 157.11,441.071 L 157.64,441.481 Z M 141.21,418.451 L 141.66,419.711 L 144.62,419.251 L 145.05,418.101 L 143.59,415.741 L 143.59,415.741 L 143.25,416.971 L 142.56,416.231 L 142.69,417.331 Z M 145.298,418.5 L 144.49,421.701 L 146.79,421.351 L 145.93,421.121 L 147.17,419.041 L 146.31,417.511 L 145.58,417.381 L 145.298,418.5 Z M 140.55,417.471 L 139.58,416.861 L 139.49,418.411 Z M 94.7,563.621 L 92.58,560.051 L 90.32,560.701 L 89.77,559.741 L 88.64,561.931 L 89.2,564.781 L 92,570.131 L 93.56,569.241 Z M 84.83,561.051 L 86.45,560.671 L 86.58,555.211 L 84.43,555.261 L 81.99,557.501 L 83.53,558.411 L 83.48,560.101 Z"></path>
          </g>

          <g id="microstates">
            <path class="microstate" aria-label="Vatican City" d="m 299.30021,372.14051 -0.11,-0.11 -0.1,0.03 -0.17,0.04 -0.16,0.26 -0.03,0.06 0.06,0.08 0.06,-0.02 0.26,0.06 0.2,-0.08 0.02,-0.06 -0.04,-0.08 z"></path>
<path class="microstate" aria-label="San Marino" d="m 296.86021,232.83051 0,0 3.83,0.43 0.39,-1.34 0,0 1.14,-1.56 -0.32,-3.75 -3.7,2.48 -1.66,0.03 0.28,3.61 z"></path>
          </g>
          <g id="map-tooltip" role="status" aria-live="polite">
            <rect width="260" height="104" rx="18" fill="#171714" filter="url(#tooltip-shadow)"/>
            <circle cx="22" cy="25" r="6" fill="#f36a15"/>
            <text id="tooltip-area" x="38" y="32" fill="#fff" font-size="25" font-weight="650"></text>
            <text id="tooltip-dealers" x="18" y="60" fill="#aaa9a4" font-size="18"></text>
            <text id="tooltip-value" x="18" y="88" fill="#fff" font-size="29" font-weight="700"></text>
          </g>
          <script><![CDATA[
            (() => {
              const details = {
                northwest: { label: "Nord Ovest", value: "€ 4,4 mln", dealers: "14 dealer" },
                northeast: { label: "Nord Est", value: "€ 4,3 mln", dealers: "10 dealer" },
                center: { label: "Centro", value: "€ 4 mln", dealers: "12 dealer" },
                south: { label: "Sud e Isole", value: "€ 3,9 mln", dealers: "12 dealer" }
              };
              const shapes = [...document.querySelectorAll(".macroarea")];
              const tooltip = document.getElementById("map-tooltip");
              const tooltipArea = document.getElementById("tooltip-area");
              const tooltipDealers = document.getElementById("tooltip-dealers");
              const tooltipValue = document.getElementById("tooltip-value");

              function show(shape) {
                const info = details[shape.dataset.area];
                const box = shape.getBBox();
                const x = Math.max(8, Math.min(342, box.x + box.width / 2 - 130));
                const y = Math.max(8, Math.min(680, box.y + box.height / 2 - 118));
                tooltipArea.textContent = info.label;
                tooltipDealers.textContent = info.dealers;
                tooltipValue.textContent = info.value;
                tooltip.setAttribute("transform", `translate(${x} ${y})`);
                tooltip.classList.add("visible");
                shapes.forEach(item => {
                  item.classList.toggle("dimmed", item !== shape);
                  item.classList.toggle("remote-active", item === shape);
                });
              }

              function hide() {
                tooltip.classList.remove("visible");
                shapes.forEach(item => {
                  item.classList.remove("dimmed");
                  item.classList.remove("remote-active");
                });
              }

              shapes.forEach(shape => {
                const info = details[shape.dataset.area];
                shape.setAttribute("tabindex", "0");
                shape.setAttribute("aria-label", `${info.label}: ${info.value}, ${info.dealers}`);
                shape.addEventListener("mouseenter", () => show(shape));
                shape.addEventListener("mouseleave", hide);
                shape.addEventListener("focus", () => show(shape));
                shape.addEventListener("blur", hide);
              });

              window.addEventListener("message", event => {
                const message = event.data;
                if (!message || message.type !== "sdf-area-hover") return;
                const shape = shapes.find(item => item.dataset.area === message.area);
                if (!shape) return;
                if (message.active) show(shape);
                else hide();
              });
            })();
          ]]></script>
        </svg>
