<svg xmlns="http://www.w3.org/2000/svg" xmlns:xlink="http://www.w3.org/1999/xlink" viewBox="195 379 378 367" preserveAspectRatio="xMidYMid meet" version="1.0"><path fill="#000000" stroke="#000000" stroke-width="7" stroke-linecap="round" stroke-linejoin="round" paint-order="stroke fill" d="M 220.957031 394.679688 C 216.816406 396.296875 213.644531 399.039062 211.566406 402.789062 L 209.761719 406.046875 L 209.597656 470.347656 C 209.445312 529.085938 209.519531 534.929688 210.457031 537.910156 C 211.804688 542.183594 215.78125 546.601562 220 548.511719 L 223.234375 549.972656 L 291.523438 549.972656 C 357.035156 549.972656 359.929688 549.925781 362.8125 548.8125 C 366.679688 547.320312 370.195312 544.121094 372.257812 540.210938 L 373.894531 537.109375 L 374.078125 473.417969 C 374.289062 399.789062 374.664062 404.953125 368.664062 398.90625 C 362.886719 393.089844 368.632812 393.488281 291.257812 393.523438 C 227.226562 393.546875 223.703125 393.605469 220.957031 394.679688 M 405.867188 394.371094 C 400.652344 396.242188 396.734375 399.910156 394.660156 404.855469 C 393.738281 407.054688 393.648438 413.117188 393.667969 471.960938 L 393.691406 536.652344 L 395.300781 540.054688 C 397.121094 543.902344 400.09375 546.789062 404.179688 548.679688 C 406.960938 549.96875 407.117188 549.972656 475.253906 549.972656 C 541.09375 549.972656 543.648438 549.929688 546.585938 548.796875 C 550.90625 547.128906 555.160156 542.949219 556.6875 538.859375 C 557.910156 535.59375 557.933594 534.363281 557.9375 471.707031 C 557.9375 412.402344 557.863281 407.671875 556.863281 404.875 C 555.609375 401.371094 551.851562 397.253906 548.050781 395.226562 L 545.378906 393.800781 L 476.785156 393.667969 C 420.105469 393.554688 407.789062 393.679688 405.867188 394.371094 M 222.480469 398.792969 C 218.824219 400.089844 215.222656 404.339844 214.351562 408.394531 C 213.867188 410.636719 213.722656 429.683594 213.859375 473.722656 L 214.046875 535.886719 L 215.40625 538.429688 C 217.078125 541.550781 220.386719 544.359375 223.492188 545.292969 C 226.953125 546.328125 356.847656 546.28125 360.351562 545.242188 C 363.964844 544.167969 368.28125 539.6875 369.195312 536.054688 C 369.722656 533.960938 369.910156 516.679688 369.902344 471.15625 C 369.886719 410.085938 369.867188 409.066406 368.640625 406.355469 C 366.847656 402.386719 364.027344 399.734375 360.480469 398.683594 C 355.882812 397.316406 226.351562 397.421875 222.480469 398.792969 M 407.882812 398.347656 C 403.679688 399.636719 401 401.847656 398.921875 405.742188 C 397.832031 407.789062 397.773438 410.71875 397.613281 470.300781 C 397.421875 540.972656 397.191406 537.242188 402.035156 541.949219 C 403.5 543.371094 405.789062 544.863281 407.128906 545.261719 C 408.941406 545.804688 426.367188 545.992188 475.707031 545.992188 C 549.203125 545.992188 545.042969 546.222656 549.5 541.871094 C 553.882812 537.589844 553.679688 541.21875 553.5 470.582031 L 553.339844 407.175781 L 551.496094 404.195312 C 550.1875 402.078125 548.773438 400.761719 546.613281 399.652344 L 543.574219 398.085938 L 476.496094 397.980469 C 439.601562 397.921875 408.726562 398.089844 407.882812 398.347656 M 518.429688 446.652344 C 515.734375 449.601562 506.917969 459.304688 498.832031 468.214844 C 490.75 477.125 482.757812 485.847656 481.070312 487.601562 L 478.007812 490.785156 L 463.691406 481.335938 C 455.820312 476.136719 449.066406 471.875 448.6875 471.863281 C 447.589844 471.832031 414.621094 505.570312 414.621094 506.730469 C 414.621094 507.828125 415.734375 509.242188 416.601562 509.242188 C 416.882812 509.242188 424.335938 501.933594 433.167969 493 L 449.226562 476.753906 L 463.574219 486.261719 C 471.464844 491.492188 478.253906 495.769531 478.660156 495.769531 C 479.066406 495.769531 483.222656 491.585938 487.890625 486.46875 C 492.5625 481.351562 503.210938 469.707031 511.558594 460.59375 C 527.117188 443.605469 528.402344 441.753906 524.859375 441.429688 C 523.636719 441.316406 522.34375 442.367188 518.429688 446.652344 M 229.050781 574.167969 C 222.175781 574.445312 221.117188 574.640625 218.640625 576.101562 C 214.984375 578.261719 212.878906 580.558594 211.171875 584.269531 L 209.761719 587.328125 L 209.761719 652.25 C 209.761719 717.0625 209.761719 717.171875 211.054688 719.921875 C 212.710938 723.441406 216.347656 727.078125 219.867188 728.734375 C 222.621094 730.027344 222.652344 730.027344 291.828125 730.027344 L 361.035156 730.027344 L 364.171875 728.375 C 368.359375 726.164062 372.148438 721.773438 373.308594 717.78125 C 374.105469 715.039062 374.207031 706.097656 374.0625 650.667969 L 373.894531 586.71875 L 372.25 583.601562 C 370.320312 579.941406 367.097656 576.9375 363.207031 575.167969 C 360.449219 573.914062 359.792969 573.898438 298.566406 573.878906 C 264.542969 573.867188 233.261719 573.996094 229.050781 574.167969 M 406.960938 574.5 C 403.484375 575.382812 399.039062 578.085938 397.492188 580.261719 C 396.78125 581.257812 395.59375 583.390625 394.847656 585.007812 L 393.492188 587.941406 L 393.527344 652.25 L 393.5625 716.554688 L 394.910156 719.328125 C 396.921875 723.472656 399.417969 726.1875 403.074219 728.210938 L 406.355469 730.027344 L 474.742188 730.191406 L 543.132812 730.355469 L 546.667969 729.03125 C 551.285156 727.304688 555.546875 723.113281 556.9375 718.929688 C 557.863281 716.140625 557.941406 710.105469 557.789062 650.984375 L 557.625 586.105469 L 556.296875 583.621094 C 554.421875 580.117188 551.414062 577.3125 547.660156 575.5625 L 544.425781 574.058594 L 476.960938 573.957031 C 431.535156 573.890625 408.667969 574.066406 406.960938 574.5 M 223.269531 578.746094 C 218.75 580.367188 215.609375 583.691406 214.363281 588.175781 C 213.96875 589.59375 213.746094 612.726562 213.746094 652.324219 C 213.742188 720.679688 213.5625 717.433594 217.59375 721.679688 C 218.675781 722.816406 220.664062 724.257812 222.007812 724.882812 C 224.347656 725.96875 227.492188 726.019531 291.292969 726.035156 C 364.417969 726.050781 361.324219 726.195312 365.214844 722.503906 C 366.175781 721.589844 367.558594 719.738281 368.285156 718.390625 L 369.609375 715.941406 L 369.796875 653.78125 C 369.933594 608.722656 369.792969 590.722656 369.285156 588.363281 C 368.46875 584.578125 366.035156 581.472656 362.316406 579.484375 L 359.808594 578.144531 L 292.746094 578.011719 C 236.265625 577.902344 225.304688 578.015625 223.269531 578.746094 M 407.183594 578.6875 C 402.492188 580.363281 399.109375 584.246094 398.097656 589.109375 C 397.65625 591.246094 397.5 611.972656 397.613281 653.792969 L 397.78125 715.328125 L 399.207031 718.226562 C 400.765625 721.394531 403.964844 724.234375 407.210938 725.339844 C 408.734375 725.859375 427.183594 726.046875 476.195312 726.046875 L 543.09375 726.046875 L 546.371094 724.335938 C 548.753906 723.089844 550.148438 721.8125 551.492188 719.636719 L 553.339844 716.652344 L 553.523438 653.214844 C 553.652344 607.832031 553.507812 589.109375 553.019531 587.421875 C 552.644531 586.128906 551.21875 583.855469 549.851562 582.371094 C 545.433594 577.582031 549.625 577.832031 475.296875 577.863281 C 422.765625 577.886719 408.964844 578.054688 407.183594 578.6875 M 318.492188 617.605469 C 317.523438 619.414062 317.621094 695.558594 318.589844 696.527344 C 319.695312 697.632812 321.40625 697.414062 322.121094 696.078125 C 323.089844 694.269531 322.992188 618.125 322.019531 617.15625 C 320.917969 616.050781 319.203125 616.269531 318.492188 617.605469 M 425.671875 623.433594 C 425.265625 623.925781 425.027344 624.820312 425.144531 625.425781 C 425.324219 626.371094 426.128906 626.550781 430.859375 626.707031 C 437.382812 626.921875 439.121094 626.582031 439.121094 625.105469 C 439.121094 623.015625 437.820312 622.546875 432.027344 622.546875 C 427.863281 622.546875 426.21875 622.777344 425.671875 623.433594 M 455.023438 623.808594 C 453.378906 626.882812 453.054688 626.855469 490.730469 626.683594 C 522.542969 626.539062 525.703125 626.4375 526.289062 625.507812 C 526.757812 624.765625 526.710938 624.21875 526.128906 623.515625 C 525.410156 622.652344 521.527344 622.546875 490.511719 622.546875 C 455.964844 622.546875 455.695312 622.554688 455.023438 623.808594 M 284.929688 644.078125 C 283.726562 645.28125 283.847656 694.753906 285.054688 696.378906 C 285.761719 697.332031 286.160156 697.433594 287.046875 696.890625 C 288.085938 696.253906 288.152344 694.625 288.152344 669.941406 C 288.152344 644.089844 288.132812 643.671875 286.921875 643.5 C 286.242188 643.402344 285.347656 643.664062 284.929688 644.078125 M 425.222656 654.167969 C 425.011719 654.71875 425.121094 655.617188 425.460938 656.160156 C 425.964844 656.960938 427.230469 657.148438 432.078125 657.148438 C 436.925781 657.148438 438.1875 656.960938 438.691406 656.160156 C 439.035156 655.617188 439.140625 654.71875 438.929688 654.167969 C 438.609375 653.328125 437.5 653.167969 432.078125 653.167969 C 426.652344 653.167969 425.546875 653.328125 425.222656 654.167969 M 455 654.136719 C 454.417969 654.839844 454.371094 655.386719 454.839844 656.128906 C 455.425781 657.0625 458.492188 657.148438 490.566406 657.148438 C 522.183594 657.148438 525.707031 657.050781 526.269531 656.160156 C 526.613281 655.617188 526.71875 654.71875 526.507812 654.167969 C 526.160156 653.257812 522.949219 653.167969 490.964844 653.167969 C 459.632812 653.167969 455.71875 653.273438 455 654.136719 M 251.222656 667.375 C 250.695312 667.90625 250.488281 672.015625 250.488281 682 C 250.488281 693.925781 250.625 696.003906 251.457031 696.695312 C 252.160156 697.277344 252.707031 697.320312 253.449219 696.855469 C 254.34375 696.289062 254.488281 694.5 254.632812 682.269531 C 254.796875 668.367188 254.582031 666.640625 252.679688 666.640625 C 252.28125 666.640625 251.628906 666.972656 251.222656 667.375 M 425.230469 684.769531 C 424.371094 687.011719 425.816406 687.761719 431.371094 687.945312 C 437.3125 688.144531 439.296875 687.492188 439.003906 685.433594 C 438.824219 684.164062 438.46875 684.085938 432.21875 683.921875 C 426.523438 683.773438 425.570312 683.886719 425.230469 684.769531 M 455 684.757812 C 454.417969 685.464844 454.371094 686.007812 454.839844 686.75 C 455.425781 687.683594 458.492188 687.769531 490.566406 687.769531 C 522.183594 687.769531 525.707031 687.671875 526.269531 686.78125 C 526.613281 686.238281 526.71875 685.34375 526.507812 684.792969 C 526.160156 683.878906 522.949219 683.789062 490.964844 683.789062 C 459.632812 683.789062 455.71875 683.894531 455 684.757812 " fill-opacity="1" fill-rule="evenodd"/></svg>