<svg xmlns="http://www.w3.org/2000/svg" xmlns:xlink="http://www.w3.org/1999/xlink" viewBox="272 406 223 313" preserveAspectRatio="xMidYMid meet" version="1.0"><path fill="#000000" stroke="#000000" stroke-width="7" stroke-linecap="round" stroke-linejoin="round" paint-order="stroke fill" d="M 300.292969 420.089844 C 294.902344 421.789062 290.070312 426.097656 287.625 431.390625 L 286.316406 434.21875 L 286.15625 559.421875 C 285.980469 695.507812 285.820312 688.5625 289.289062 694.0625 C 291.226562 697.125 294.765625 700.191406 298.226562 701.792969 L 301.015625 703.082031 L 466.984375 703.082031 L 470.429688 701.390625 C 474.945312 699.171875 479.007812 694.777344 480.683594 690.296875 L 482.007812 686.757812 L 481.847656 587.117188 L 481.683594 487.476562 L 479.710938 483.507812 C 477.984375 480.035156 474.234375 476.007812 449.703125 451.269531 C 425.132812 426.496094 421.210938 422.785156 417.992188 421.261719 L 414.316406 419.519531 L 358.582031 419.402344 C 313.945312 419.308594 302.34375 419.445312 300.292969 420.089844 M 300.074219 427.625 C 296.515625 429.429688 294.398438 431.96875 293.367188 435.679688 C 292.964844 437.128906 292.757812 480.78125 292.761719 562.21875 C 292.773438 681.675781 292.816406 686.644531 293.902344 689.03125 C 295.511719 692.574219 299.566406 695.835938 303.390625 696.664062 C 305.617188 697.144531 329.613281 697.285156 386.144531 697.148438 L 465.761719 696.957031 L 468.628906 695.269531 C 470.207031 694.34375 472.101562 692.738281 472.835938 691.703125 C 475.980469 687.292969 475.867188 691.136719 475.867188 588.8125 C 475.867188 536.347656 475.699219 492.984375 475.496094 492.453125 C 475.164062 491.589844 472.46875 491.484375 451.414062 491.484375 C 425.175781 491.484375 423.625 491.300781 419.289062 487.714844 C 417.984375 486.636719 416.261719 484.355469 415.46875 482.644531 L 414.023438 479.539062 L 414.015625 454.089844 C 414.011719 433.082031 413.859375 428.429688 413.140625 427.445312 C 412.292969 426.289062 410.914062 426.253906 357.84375 426.09375 L 303.417969 425.933594 Z M 420.328125 455.183594 C 420.4375 478.335938 420.484375 479.203125 421.703125 480.875 C 424.519531 484.722656 424.933594 484.777344 450.207031 484.601562 L 473.109375 484.441406 L 446.664062 457.828125 L 420.21875 431.21875 Z M 377.074219 500.945312 C 376.144531 501.878906 376.039062 504.042969 376.039062 522.332031 C 376.039062 537.34375 376.230469 542.875 376.773438 543.417969 C 377.824219 544.46875 417.734375 544.46875 418.785156 543.417969 C 419.808594 542.398438 419.691406 536.078125 418.570312 531.292969 C 416.890625 524.144531 413.28125 517.699219 407.992188 512.414062 C 400.800781 505.21875 392.582031 501.378906 382.125 500.320312 C 378.804688 499.984375 377.929688 500.089844 377.074219 500.945312 M 382.164062 522.410156 L 382.164062 538.027344 L 397.78125 538.027344 C 406.371094 538.027344 413.390625 537.820312 413.386719 537.570312 C 413.382812 537.316406 412.988281 535.285156 412.515625 533.054688 C 410.007812 521.214844 399.957031 510.859375 387.949219 507.730469 C 381.59375 506.074219 382.164062 504.625 382.164062 522.410156 M 355.429688 511.734375 C 331.222656 523.804688 326.144531 556.332031 345.492188 575.375 C 353.289062 583.050781 361.011719 586.40625 371.957031 586.878906 C 382.386719 587.324219 389.300781 585.1875 397.894531 578.851562 C 402.601562 575.382812 406.203125 570.914062 408.984375 565.089844 C 412.335938 558.066406 411.722656 554 407.539062 555.507812 C 406.273438 555.960938 405.59375 556.945312 404.550781 559.839844 C 401.640625 567.910156 394.691406 575.09375 386.457031 578.550781 C 382.539062 580.199219 380.886719 580.527344 375.328125 580.769531 C 369.800781 581.007812 368.109375 580.84375 364.304688 579.695312 C 346.0625 574.179688 335.757812 554.890625 341.445312 536.890625 C 344.308594 527.820312 349.808594 521.460938 358.277344 517.429688 C 360.804688 516.222656 363.285156 515.035156 363.789062 514.78125 C 364.960938 514.199219 365.328125 511.277344 364.371094 510.125 C 363.160156 508.667969 360.6875 509.113281 355.429688 511.734375 M 333.570312 625.503906 C 332.351562 626.847656 332.253906 628.882812 333.359375 629.800781 C 334.566406 630.800781 433.359375 630.863281 434.5625 629.863281 C 435.863281 628.785156 435.675781 625.773438 434.261719 625.015625 C 433.472656 624.59375 416.605469 624.382812 383.828125 624.382812 C 336.898438 624.382812 334.535156 624.433594 333.570312 625.503906 M 333.570312 657.351562 C 332.378906 658.664062 332.253906 660.582031 333.289062 661.617188 C 334.351562 662.683594 416.5 662.683594 417.5625 661.617188 C 417.964844 661.214844 418.296875 660.167969 418.296875 659.292969 C 418.296875 658.417969 417.964844 657.367188 417.5625 656.964844 C 417.003906 656.40625 406.871094 656.230469 375.703125 656.230469 C 336.644531 656.230469 334.53125 656.285156 333.570312 657.351562 " fill-opacity="1" fill-rule="evenodd"/></svg>