<svg xmlns="http://www.w3.org/2000/svg" xmlns:xlink="http://www.w3.org/1999/xlink" viewBox="268 423 232 263" preserveAspectRatio="xMidYMid meet" version="1.0"><path fill="#000000" stroke="#000000" stroke-width="7" stroke-linecap="round" stroke-linejoin="round" paint-order="stroke fill" d="M 330.738281 439.207031 C 330.390625 439.859375 330.105469 443.699219 330.105469 447.738281 L 330.105469 455.082031 L 314.027344 455.28125 L 297.953125 455.480469 L 294.277344 457.414062 C 289.804688 459.773438 286.65625 462.949219 284.367188 467.421875 L 282.640625 470.789062 L 282.480469 562.457031 L 282.320312 654.128906 L 283.601562 657.558594 C 285.988281 663.929688 291.246094 669.074219 297.242188 670.894531 C 299.242188 671.503906 318.019531 671.671875 384.613281 671.671875 L 469.433594 671.671875 L 472.878906 670.054688 C 477.535156 667.871094 480.785156 664.792969 483.277344 660.199219 L 485.359375 656.359375 L 485.359375 470.789062 L 483.5625 467.242188 C 481.375 462.921875 477.546875 459.28125 472.910156 457.109375 C 469.472656 455.496094 469.265625 455.476562 453.664062 455.28125 L 437.894531 455.082031 L 437.894531 447.289062 C 437.894531 438.75 437.632812 438.023438 434.527344 438.023438 C 431.417969 438.023438 431.15625 438.746094 431.15625 447.332031 L 431.15625 455.171875 L 336.84375 455.171875 L 336.84375 447.332031 C 336.84375 442.050781 336.601562 439.253906 336.105469 438.757812 C 334.910156 437.5625 331.464844 437.851562 330.738281 439.207031 M 299.152344 463.171875 C 296.375 463.980469 292.429688 467.65625 290.808594 470.945312 L 289.378906 473.851562 L 289.378906 653.296875 L 290.808594 656.203125 C 292.507812 659.648438 296.394531 663.167969 299.445312 664.011719 C 302.761719 664.9375 465.515625 664.84375 468.605469 663.914062 C 471.851562 662.941406 475.472656 659.691406 477.191406 656.203125 L 478.621094 653.296875 L 478.785156 564.835938 C 478.96875 466.195312 479.214844 472.230469 474.769531 467.300781 C 470.695312 462.78125 469.625 462.550781 452.746094 462.535156 L 437.894531 462.523438 L 437.894531 469.519531 C 437.894531 475.066406 437.695312 476.71875 436.933594 477.484375 C 435.710938 478.703125 434.25 478.707031 432.519531 477.492188 C 431.246094 476.601562 431.15625 476.078125 431.15625 469.53125 L 431.15625 462.523438 L 336.878906 462.523438 L 336.707031 469.695312 C 336.539062 476.730469 336.503906 476.886719 334.921875 477.773438 C 333.476562 478.585938 333.144531 478.570312 331.707031 477.628906 C 330.132812 476.597656 330.105469 476.453125 330.105469 469.550781 L 330.105469 462.523438 L 315.558594 462.578125 C 307.558594 462.605469 300.175781 462.875 299.152344 463.171875 M 314.582031 502.226562 C 313.136719 503.824219 313.304688 506.363281 314.929688 507.5 C 316.144531 508.351562 323.710938 508.453125 384 508.453125 C 444.289062 508.453125 451.855469 508.351562 453.070312 507.5 C 454.75 506.324219 454.875 503.535156 453.308594 502.117188 C 452.28125 501.1875 446.585938 501.105469 383.894531 501.105469 C 318.507812 501.105469 315.554688 501.152344 314.582031 502.226562 M 320.941406 538.617188 C 316.3125 540.992188 316.019531 542.132812 316.019531 557.757812 C 316.019531 573.386719 316.308594 574.507812 320.964844 576.921875 C 323.585938 578.28125 324.113281 578.324219 337.148438 578.148438 C 350.128906 577.972656 350.695312 577.914062 352.621094 576.539062 C 355.582031 574.429688 356.441406 572.277344 356.441406 566.960938 C 356.441406 562.609375 356.34375 562.28125 354.910156 561.625 C 353.648438 561.050781 353.167969 561.125 352.15625 562.039062 C 351.203125 562.902344 350.929688 563.925781 350.929688 566.636719 C 350.929688 572.164062 350.972656 572.148438 336.152344 572.148438 C 327.214844 572.148438 323.402344 571.9375 322.878906 571.414062 C 322.351562 570.886719 322.144531 566.992188 322.144531 557.757812 C 322.144531 548.523438 322.351562 544.625 322.878906 544.097656 C 323.402344 543.574219 327.199219 543.363281 336.066406 543.363281 C 346.5 543.363281 348.765625 543.203125 350.03125 542.375 C 351.855469 541.179688 352.027344 538.769531 350.355469 537.875 C 349.648438 537.496094 344.03125 537.238281 336.398438 537.238281 C 324.359375 537.238281 323.472656 537.320312 320.941406 538.617188 M 356.40625 544.136719 C 354.234375 545.910156 349.203125 549.945312 345.222656 553.101562 L 337.988281 558.847656 L 335.707031 556.617188 C 334.449219 555.390625 332.992188 554.386719 332.472656 554.386719 C 331.402344 554.386719 329.492188 556.261719 329.492188 557.308594 C 329.492188 557.6875 331.050781 559.675781 332.957031 561.734375 C 335.5625 564.546875 336.769531 565.429688 337.832031 565.289062 C 338.609375 565.1875 344.902344 560.609375 351.824219 555.117188 C 364.628906 544.949219 365.722656 543.707031 363.667969 541.648438 C 362.277344 540.257812 360.34375 540.921875 356.40625 544.136719 M 380.347656 556.183594 C 379.445312 557.867188 379.546875 558.511719 380.9375 559.898438 C 382.132812 561.09375 382.980469 561.125 415.710938 561.125 C 445.082031 561.125 449.429688 561.003906 450.621094 560.171875 C 452.101562 559.132812 452.414062 556.902344 451.246094 555.734375 C 450.691406 555.179688 441.96875 555 415.746094 555 C 382 555 380.960938 555.035156 380.347656 556.183594 M 319.417969 600.988281 C 316.222656 603.792969 315.910156 605.671875 316.128906 620.640625 C 316.308594 632.933594 316.417969 634.046875 317.59375 635.644531 C 320.195312 639.1875 321.757812 639.515625 336.097656 639.515625 C 350.503906 639.515625 351.960938 639.234375 354.785156 635.878906 L 356.441406 633.910156 L 356.4375 619.414062 C 356.433594 598.304688 357.230469 599.097656 335.976562 599.097656 L 321.574219 599.097656 Z M 323.105469 605.570312 C 321.664062 607.011719 321.667969 631.625 323.109375 632.820312 C 323.851562 633.4375 327.027344 633.589844 336.738281 633.480469 C 347.671875 633.359375 349.5 633.203125 350.164062 632.332031 C 350.714844 631.601562 350.929688 627.90625 350.929688 618.976562 C 350.929688 607.796875 350.824219 606.539062 349.808594 605.621094 C 348.171875 604.140625 324.578125 604.097656 323.105469 605.570312 M 380.574219 617.773438 C 379.644531 619.195312 379.644531 619.417969 380.574219 620.835938 L 381.578125 622.367188 L 415.816406 622.367188 C 446.125 622.367188 450.167969 622.257812 451.019531 621.40625 C 452.160156 620.265625 452.277344 618.011719 451.246094 616.980469 C 450.691406 616.425781 442.035156 616.246094 416.042969 616.246094 L 381.578125 616.246094 Z M 380.574219 617.773438 " fill-opacity="1" fill-rule="evenodd"/></svg>