<svg xmlns="http://www.w3.org/2000/svg" xmlns:xlink="http://www.w3.org/1999/xlink" viewBox="245 458 279 239" preserveAspectRatio="xMidYMid meet" version="1.0"><path fill="#000000" stroke="#000000" stroke-width="7" stroke-linecap="round" stroke-linejoin="round" paint-order="stroke fill" d="M 336.699219 474.648438 L 334.699219 476.433594 L 334.316406 499.808594 L 332.5 499.808594 C 331.496094 499.808594 329.742188 500.199219 328.59375 500.679688 C 324.449219 502.410156 324.589844 500.773438 324.613281 546.171875 C 324.636719 590.417969 324.515625 588.796875 328.003906 591.09375 C 329.707031 592.21875 331.128906 592.277344 355.675781 592.28125 L 381.550781 592.285156 L 381.550781 611.886719 L 335.28125 611.886719 C 284.503906 611.886719 286.449219 611.746094 284.488281 615.539062 C 283.78125 616.910156 283.558594 619.507812 283.558594 626.511719 L 283.558594 635.6875 L 263.980469 636.078125 L 261.980469 638.078125 L 259.980469 640.082031 L 259.980469 660.023438 C 259.980469 679.054688 260.035156 680.003906 261.167969 680.835938 C 262.148438 681.550781 266.523438 681.703125 285.820312 681.703125 C 308.464844 681.703125 309.324219 681.660156 310.507812 680.476562 C 311.679688 679.304688 311.730469 678.4375 311.730469 660.238281 C 311.730469 639.121094 311.640625 638.574219 307.839844 636.773438 C 306.183594 635.988281 303.792969 635.769531 296.789062 635.769531 L 287.847656 635.769531 L 287.847656 627.292969 C 287.847656 619.855469 287.984375 618.6875 288.96875 617.796875 C 289.988281 616.875 294.125 616.785156 335.820312 616.785156 L 381.550781 616.785156 L 381.550781 635.769531 L 372.957031 635.769531 C 363.21875 635.769531 360.761719 636.414062 359.238281 639.367188 C 357.808594 642.128906 357.804688 678.304688 359.230469 680.339844 L 360.183594 681.703125 L 407.816406 681.703125 L 408.769531 680.339844 C 410.195312 678.304688 410.191406 642.128906 408.761719 639.367188 C 407.238281 636.414062 404.78125 635.769531 395.042969 635.769531 L 386.449219 635.769531 L 386.449219 616.785156 L 432.289062 616.785156 C 475.917969 616.785156 478.175781 616.839844 479.140625 617.90625 C 479.976562 618.832031 480.152344 620.460938 480.152344 627.355469 L 480.152344 635.6875 L 460.574219 636.078125 L 456.574219 640.078125 L 456.398438 659.640625 C 456.222656 678.636719 456.253906 679.242188 457.46875 680.453125 C 458.683594 681.667969 459.382812 681.703125 482.253906 681.703125 C 507.679688 681.703125 507.214844 681.761719 508.046875 678.445312 C 508.230469 677.710938 508.296875 668.777344 508.199219 658.59375 L 508.019531 640.078125 L 504.019531 636.078125 L 494.207031 635.882812 L 484.398438 635.683594 L 484.519531 626.695312 C 484.625 619.289062 484.464844 617.355469 483.613281 615.722656 C 481.527344 611.714844 483.761719 611.886719 432.71875 611.886719 L 386.449219 611.886719 L 386.449219 592.285156 L 412.324219 592.285156 C 437.105469 592.28125 438.285156 592.230469 440.207031 591.058594 C 441.308594 590.386719 442.480469 589.128906 442.808594 588.265625 C 443.175781 587.304688 443.40625 570.945312 443.40625 545.976562 C 443.40625 511.527344 443.269531 504.992188 442.515625 503.535156 C 441.480469 501.535156 438.234375 499.808594 435.503906 499.808594 L 433.609375 499.808594 L 433.609375 477.027344 L 429.441406 472.859375 L 338.699219 472.859375 Z M 339.664062 478.726562 C 339.179688 479.992188 339.179688 497.574219 339.664062 498.839844 C 339.996094 499.710938 344.480469 499.808594 384.054688 499.808594 L 428.074219 499.808594 L 428.414062 498.429688 C 428.601562 497.671875 428.675781 492.78125 428.578125 487.558594 L 428.402344 478.066406 L 384.21875 477.910156 C 344.328125 477.769531 340.003906 477.847656 339.664062 478.726562 M 330.679688 505.453125 C 329.523438 505.882812 329.492188 506.855469 329.492188 545.90625 C 329.492188 576.210938 329.671875 586.097656 330.226562 586.652344 C 330.761719 587.1875 335.425781 587.386719 347.375 587.386719 L 363.789062 587.386719 L 363.789062 569.722656 C 363.789062 553.386719 363.875 551.980469 364.910156 551.042969 C 365.898438 550.148438 368.144531 550.027344 384.105469 550.027344 C 400.839844 550.027344 402.257812 550.113281 403.195312 551.148438 C 404.089844 552.136719 404.210938 554.347656 404.210938 569.828125 L 404.210938 587.386719 L 420.625 587.386719 C 432.574219 587.386719 437.238281 587.1875 437.773438 586.652344 C 438.328125 586.097656 438.507812 576.210938 438.507812 545.90625 C 438.507812 511.8125 438.378906 505.84375 437.632812 505.558594 C 436.308594 505.050781 332.046875 504.949219 330.679688 505.453125 M 354.117188 528.097656 C 353.132812 529.082031 353.179688 530.726562 354.214844 531.585938 C 354.816406 532.085938 363.214844 532.234375 384.308594 532.121094 C 411.410156 531.972656 413.621094 531.882812 414.246094 530.890625 C 414.738281 530.109375 414.738281 529.527344 414.246094 528.746094 C 413.621094 527.753906 411.40625 527.664062 384.214844 527.515625 C 361.894531 527.394531 354.683594 527.535156 354.117188 528.097656 M 368.6875 571.15625 L 368.6875 587.386719 L 399.3125 587.386719 L 399.3125 554.929688 L 368.6875 554.929688 Z M 265.644531 641.332031 C 264.664062 641.902344 264.574219 643.429688 264.574219 659.378906 L 264.574219 676.804688 L 276.210938 676.804688 L 276.210938 670.800781 C 276.210938 666.949219 276.472656 664.535156 276.945312 664.066406 C 277.441406 663.566406 280.28125 663.328125 285.703125 663.328125 C 291.128906 663.328125 293.964844 663.566406 294.460938 664.066406 C 294.933594 664.535156 295.195312 666.949219 295.195312 670.800781 L 295.195312 676.804688 L 306.832031 676.804688 L 306.832031 659.371094 C 306.832031 642.761719 306.777344 641.90625 305.648438 641.304688 C 304.054688 640.453125 267.113281 640.476562 265.644531 641.332031 M 364.25 641.351562 C 363.265625 641.90625 363.175781 643.425781 363.175781 659.402344 L 363.175781 676.851562 L 368.84375 676.675781 L 374.507812 676.496094 L 374.660156 671.292969 C 374.917969 662.609375 374.070312 663.328125 383.988281 663.328125 C 394.164062 663.328125 393.800781 663.035156 393.800781 671.25 L 393.800781 676.804688 L 404.824219 676.804688 L 404.824219 659.371094 C 404.824219 642.804688 404.765625 641.90625 403.644531 641.308594 C 402.097656 640.476562 365.722656 640.515625 364.25 641.351562 M 463.003906 641.117188 C 462.5 641.308594 461.882812 641.769531 461.636719 642.140625 C 461.386719 642.511719 461.183594 650.460938 461.175781 659.808594 L 461.167969 676.804688 L 472.804688 676.804688 L 472.804688 670.800781 C 472.804688 666.949219 473.066406 664.535156 473.539062 664.066406 C 474.035156 663.566406 476.894531 663.328125 482.398438 663.328125 C 492.09375 663.328125 491.789062 663.074219 491.789062 671.25 L 491.789062 676.804688 L 503.425781 676.804688 L 503.425781 659.371094 C 503.425781 642.761719 503.371094 641.90625 502.242188 641.304688 C 500.996094 640.636719 464.71875 640.464844 463.003906 641.117188 M 273.28125 649.964844 C 272.289062 650.960938 272.335938 652.601562 273.378906 653.46875 C 273.964844 653.957031 277.839844 654.121094 286.023438 654.003906 C 296.480469 653.855469 297.894531 653.714844 298.496094 652.765625 C 298.988281 651.984375 298.988281 651.402344 298.496094 650.621094 C 297.894531 649.671875 296.476562 649.53125 285.925781 649.386719 C 277.191406 649.261719 273.832031 649.417969 273.28125 649.964844 M 371.789062 650.117188 C 371.378906 650.609375 371.136719 651.648438 371.246094 652.425781 L 371.445312 653.835938 L 383.628906 653.835938 C 394.5625 653.835938 395.878906 653.726562 396.484375 652.765625 C 396.976562 651.984375 396.976562 651.402344 396.484375 650.621094 C 395.886719 649.671875 394.480469 649.53125 384.171875 649.382812 C 374.550781 649.246094 372.40625 649.375 371.789062 650.117188 M 469.875 649.964844 C 468.882812 650.960938 468.929688 652.601562 469.972656 653.46875 C 470.558594 653.957031 474.433594 654.121094 482.617188 654.003906 C 493.074219 653.855469 494.488281 653.714844 495.089844 652.765625 C 495.582031 651.984375 495.582031 651.402344 495.089844 650.621094 C 494.488281 649.671875 493.070312 649.53125 482.519531 649.386719 C 473.785156 649.261719 470.425781 649.417969 469.875 649.964844 M 281.109375 672.515625 L 281.109375 676.804688 L 290.296875 676.804688 L 290.296875 668.230469 L 281.109375 668.230469 Z M 379.101562 672.515625 L 379.101562 676.804688 L 388.898438 676.804688 L 388.898438 668.230469 L 379.101562 668.230469 Z M 477.703125 672.515625 L 477.703125 676.804688 L 486.890625 676.804688 L 486.890625 668.230469 L 477.703125 668.230469 Z M 477.703125 672.515625 " fill-opacity="1" fill-rule="evenodd"/></svg>