<svg xmlns="http://www.w3.org/2000/svg" xmlns:xlink="http://www.w3.org/1999/xlink" viewBox="225 399 317 302" preserveAspectRatio="xMidYMid meet" version="1.0"><path fill="#000000" stroke="#000000" stroke-width="7" stroke-linecap="round" stroke-linejoin="round" paint-order="stroke fill" d="M 360.726562 413.460938 C 323.292969 418.558594 292.515625 443.839844 280.597656 479.273438 C 277.09375 489.695312 276.691406 492.652344 276.378906 510.355469 C 276.09375 526.625 276.082031 526.738281 274.773438 526.753906 C 268.984375 526.8125 261.757812 527.632812 258.371094 528.613281 C 252.882812 530.207031 247.476562 534.246094 244.332031 539.113281 C 239.941406 545.902344 239.878906 546.359375 239.609375 571.914062 C 239.453125 586.789062 239.609375 596.277344 240.050781 599.167969 C 241.464844 608.359375 246.660156 615.742188 254.363281 619.503906 C 260.144531 622.328125 265.429688 623.070312 277.679688 622.78125 C 285.988281 622.582031 287.972656 622.347656 290.296875 621.289062 C 293.636719 619.769531 296.738281 616.378906 297.652344 613.257812 C 298.121094 611.65625 298.269531 599.578125 298.140625 573.898438 C 297.964844 539.230469 297.878906 536.710938 296.820312 534.769531 C 294.550781 530.609375 289.609375 527.398438 285.398438 527.355469 C 281.441406 527.3125 281.550781 527.832031 281.894531 511.042969 C 282.234375 494.4375 282.675781 491.378906 286.320312 480.40625 C 296.558594 449.574219 322.597656 427.054688 356.453125 419.761719 C 360.957031 418.792969 364.609375 418.644531 384 418.660156 C 404.722656 418.679688 406.789062 418.777344 412.332031 420.019531 C 441.722656 426.609375 464.742188 444.492188 477.488281 470.644531 C 483.519531 483.007812 485.550781 493.046875 486.027344 512.769531 L 486.363281 526.667969 L 484.175781 527.007812 L 479.863281 527.683594 C 476.972656 528.132812 472.824219 531.417969 470.964844 534.730469 L 469.433594 537.457031 L 469.433594 612.882812 L 471.292969 615.898438 C 473.523438 619.511719 477.695312 622.027344 482.457031 622.628906 C 484.230469 622.851562 485.820312 623.261719 485.992188 623.535156 C 486.628906 624.566406 484.957031 635.53125 483.546875 639.59375 C 481.410156 645.734375 478.609375 650.09375 473.417969 655.371094 C 464.203125 664.726562 456.355469 667.222656 437.332031 666.851562 L 428.5 666.679688 L 426.808594 663.410156 C 424.59375 659.121094 423.640625 658.132812 419.929688 656.285156 C 416.859375 654.753906 416.695312 654.738281 401.007812 654.738281 C 383.539062 654.738281 382.433594 654.929688 378.566406 658.597656 C 374.269531 662.671875 372.585938 669.167969 374.257812 675.195312 C 375.148438 678.402344 380.546875 683.800781 383.753906 684.691406 C 385.171875 685.085938 392.304688 685.355469 401.320312 685.355469 C 417.382812 685.359375 418.78125 685.15625 422.449219 682.273438 C 424.519531 680.644531 427.332031 676.417969 427.820312 674.203125 L 428.191406 672.5 L 439.933594 672.488281 C 454.011719 672.476562 458.082031 671.761719 465.761719 667.960938 C 481.007812 660.410156 490.554688 645.96875 491.605469 628.863281 L 491.972656 622.890625 L 496.976562 622.890625 C 507.390625 622.890625 514.285156 620.414062 520.058594 614.59375 C 523.859375 610.761719 526.199219 606.523438 527.238281 601.578125 C 528.351562 596.292969 528.140625 552.546875 526.980469 547.613281 C 523.828125 534.246094 512.777344 526.800781 496.007812 526.75 L 491.957031 526.738281 L 491.609375 511.273438 C 491.136719 490.148438 489.421875 482.394531 481.683594 466.414062 C 476.855469 456.445312 470.761719 448.15625 462.332031 440.078125 C 449.050781 427.359375 432.570312 418.648438 414.082031 414.582031 C 408.8125 413.425781 405.894531 413.269531 386.449219 413.101562 C 374.492188 413 362.917969 413.160156 360.726562 413.460938 M 372.921875 482.941406 C 348.019531 487.667969 328.726562 505.917969 322.441406 530.695312 C 319.523438 542.195312 319.855469 552.710938 323.492188 564.089844 C 326.851562 574.609375 331.09375 581.71875 338.59375 589.410156 C 346.070312 597.078125 354.863281 602.609375 364.558594 605.738281 C 368.355469 606.96875 368.667969 607.21875 370.875 610.828125 C 375.914062 619.0625 381.609375 627.167969 382.816406 627.8125 C 384.917969 628.9375 386.484375 627.296875 392.589844 617.574219 C 395.722656 612.582031 398.613281 608.136719 399.011719 607.695312 C 399.410156 607.253906 401.945312 606.128906 404.640625 605.195312 C 424.722656 598.242188 439.574219 582.136719 445.328125 561.074219 C 446.960938 555.089844 447.5625 541.84375 446.480469 535.6875 C 441.945312 509.914062 423.976562 490.242188 399.074219 483.789062 C 392.578125 482.105469 379.550781 481.683594 372.921875 482.941406 M 375.425781 487.964844 C 362.863281 490.050781 351.777344 495.890625 342.925781 505.082031 C 337.378906 510.839844 335.136719 514.039062 331.921875 520.761719 C 328.503906 527.914062 326.984375 534.25 326.605469 542.96875 C 326.25 551.089844 326.96875 557.183594 328.976562 563.050781 C 335.152344 581.097656 348.78125 594.53125 366.773438 600.296875 C 371.933594 601.953125 371.734375 601.75 378.566406 612.480469 C 381.25 616.691406 383.636719 620.191406 383.875 620.261719 C 384.113281 620.332031 386.882812 616.28125 390.027344 611.261719 L 395.75 602.128906 L 401.640625 600.234375 C 425.398438 592.585938 441.566406 570.355469 441.570312 545.332031 C 441.570312 524.046875 428.6875 503.152344 409.722656 493.683594 C 404.433594 491.042969 398.734375 489.105469 393.535156 488.1875 C 390.054688 487.570312 378.640625 487.429688 375.425781 487.964844 M 377.980469 512.914062 C 374.660156 513.996094 371.007812 516.5 369.101562 519 C 365.191406 524.136719 363.382812 530.53125 365.296875 532.445312 C 367.554688 534.703125 369.460938 533.191406 370.5 528.328125 C 371.945312 521.546875 378.671875 516.824219 385.550781 517.765625 C 394.75 519.027344 400.046875 528.660156 396.203125 537.140625 C 394.53125 540.824219 393.597656 541.753906 388.734375 544.59375 C 383.332031 547.75 381.714844 550.167969 381.183594 555.878906 C 380.691406 561.171875 381.386719 562.871094 384.035156 562.871094 C 386.253906 562.871094 387.0625 561.21875 387.0625 556.667969 C 387.0625 552.625 387.738281 551.535156 391.394531 549.683594 C 398.839844 545.910156 402.984375 539.550781 402.984375 531.898438 C 402.984375 529.519531 402.546875 526.28125 402.011719 524.707031 C 400.738281 520.980469 396.273438 516.058594 392.335938 514.054688 C 388.519531 512.109375 382.027344 511.59375 377.980469 512.914062 M 259.011719 534.296875 C 252.554688 536.953125 248.375 541.460938 246.492188 547.796875 C 245.085938 552.542969 245.171875 598.148438 246.597656 602.417969 C 248.019531 606.6875 250.335938 609.9375 253.867188 612.625 C 258.644531 616.261719 261.214844 616.769531 274.945312 616.765625 C 285.589844 616.761719 287.140625 616.632812 288.816406 615.613281 C 292.820312 613.171875 292.746094 613.921875 292.746094 574.816406 C 292.746094 535.707031 292.820312 536.460938 288.816406 534.019531 C 287.132812 532.992188 285.597656 532.871094 274.679688 532.878906 C 263.320312 532.890625 262.183594 532.996094 259.011719 534.296875 M 479.796875 533.433594 C 479.097656 533.730469 477.785156 534.847656 476.886719 535.914062 L 475.253906 537.855469 L 475.253906 612.011719 L 480.09375 616.851562 L 493.75 616.65625 C 507.273438 616.464844 507.4375 616.445312 510.582031 614.785156 C 514.890625 612.515625 517.925781 609.277344 520.199219 604.519531 L 522.105469 600.539062 L 522.105469 549.09375 L 520.339844 545.273438 C 518.292969 540.84375 513.992188 536.496094 509.683594 534.503906 C 507.042969 533.285156 505.6875 533.15625 493.933594 533.03125 C 486.859375 532.957031 480.496094 533.136719 479.796875 533.433594 M 380.9375 572.058594 C 379.222656 573.777344 379.292969 577.207031 381.074219 578.457031 C 384.1875 580.636719 388.285156 578.742188 388.285156 575.121094 C 388.285156 574.101562 387.742188 572.738281 387.0625 572.058594 C 386.382812 571.378906 385.019531 570.835938 384 570.835938 C 382.980469 570.835938 381.617188 571.378906 380.9375 572.058594 M 383.992188 661.628906 C 380.515625 663.996094 379.40625 666.03125 379.40625 670.050781 C 379.40625 673.921875 380.410156 675.878906 383.625 678.28125 C 385.226562 679.476562 386.113281 679.542969 400.84375 679.542969 C 415.636719 679.542969 416.449219 679.480469 418.097656 678.261719 C 424.332031 673.644531 424.101562 664.929688 417.664062 661.628906 C 415.097656 660.3125 414.304688 660.25 400.496094 660.25 C 386.488281 660.25 385.953125 660.296875 383.992188 661.628906 " fill-opacity="1" fill-rule="evenodd"/></svg>