<svg xmlns="http://www.w3.org/2000/svg" xmlns:xlink="http://www.w3.org/1999/xlink" viewBox="227 318 315 333" preserveAspectRatio="xMidYMid meet" version="1.0"><path fill="#000000" stroke="#000000" stroke-width="7" stroke-linecap="round" stroke-linejoin="round" paint-order="stroke fill" d="M 264.742188 332.882812 C 253.011719 335.726562 243.414062 345.445312 240.976562 356.949219 C 239.621094 363.347656 239.660156 607.289062 241.019531 613.050781 C 243.734375 624.570312 252.714844 633.65625 264.390625 636.699219 C 267.433594 637.492188 283.148438 637.613281 384 637.613281 C 485.5 637.613281 500.550781 637.496094 503.652344 636.6875 C 514.164062 633.949219 522.367188 626.59375 526.238281 616.433594 L 527.617188 612.808594 L 527.777344 486.984375 C 527.886719 404.8125 527.726562 359.980469 527.328125 357.757812 C 525.214844 346.070312 515.246094 335.746094 503.367188 332.945312 C 499.9375 332.136719 484.894531 332.027344 383.695312 332.066406 C 292.488281 332.097656 267.261719 332.273438 264.742188 332.882812 M 263.960938 339.269531 C 255.964844 341.835938 249.769531 348.027344 247.414062 355.800781 C 246.195312 359.828125 246.183594 361.128906 246.34375 486.351562 L 246.507812 612.832031 L 248.535156 616.953125 C 251.230469 622.425781 255.53125 626.753906 260.730469 629.214844 L 264.878906 631.179688 L 503.121094 631.179688 L 507.25 629.226562 C 512.515625 626.730469 516.71875 622.53125 519.398438 617.085938 L 521.492188 612.832031 L 521.492188 356.78125 L 519.507812 352.75 C 516.921875 347.496094 512.464844 343.023438 507.273438 340.46875 L 503.144531 338.433594 L 385.238281 338.3125 C 273.996094 338.195312 267.140625 338.25 263.960938 339.269531 M 476.757812 394.601562 C 474.773438 396.164062 444.304688 422.816406 412.496094 450.816406 C 400.445312 461.429688 390.335938 470.203125 390.039062 470.316406 C 389.738281 470.429688 381.554688 466.089844 371.847656 460.671875 C 362.140625 455.25 353.738281 450.816406 353.175781 450.816406 C 352.140625 450.816406 344.863281 457.34375 310.964844 488.671875 C 291.984375 506.21875 290.875 507.492188 292.867188 509.488281 C 294.753906 511.375 296.441406 510.253906 308.542969 499.046875 C 318.300781 490.007812 332.042969 477.390625 352.21875 458.949219 L 353.816406 457.488281 L 367.835938 465.246094 C 375.546875 469.511719 383.460938 473.9375 385.421875 475.078125 C 387.382812 476.21875 389.585938 477.140625 390.320312 477.128906 C 391.152344 477.113281 396.0625 473.238281 403.324219 466.867188 C 409.742188 461.242188 423.773438 448.917969 434.507812 439.488281 C 445.242188 430.054688 460.246094 416.886719 467.855469 410.222656 C 475.902344 403.167969 481.769531 397.582031 481.886719 396.851562 C 482.105469 395.503906 480.4375 393.246094 479.222656 393.246094 C 478.8125 393.246094 477.707031 393.855469 476.757812 394.601562 M 458.839844 458.289062 C 458.277344 458.851562 458.105469 473.878906 458.105469 522.195312 C 458.105469 582.613281 458.152344 585.410156 459.226562 586.378906 C 460.6875 587.703125 461.515625 587.65625 463.003906 586.167969 C 464.214844 584.957031 464.230469 584.125 464.230469 522.609375 C 464.230469 467.183594 464.125 460.125 463.277344 458.914062 C 462.238281 457.433594 460.007812 457.121094 458.839844 458.289062 M 407.621094 495.875 C 406.765625 496.734375 406.660156 501.660156 406.660156 540.890625 C 406.660156 584.125 406.683594 584.964844 407.886719 586.167969 C 409.40625 587.6875 410.464844 587.714844 411.769531 586.269531 C 412.695312 585.25 412.785156 581.207031 412.785156 540.765625 C 412.785156 507.0625 412.609375 496.207031 412.050781 495.648438 C 411.019531 494.617188 408.765625 494.734375 407.621094 495.875 M 356.710938 517.21875 C 355.5625 518.054688 355.515625 519.226562 355.339844 550.136719 C 355.242188 567.761719 355.324219 583.09375 355.527344 584.203125 C 356.019531 586.921875 358.34375 588.074219 360.113281 586.476562 C 361.3125 585.390625 361.339844 584.609375 361.339844 551.871094 C 361.339844 520.199219 361.277344 518.320312 360.21875 517.363281 C 358.851562 516.121094 358.242188 516.097656 356.710938 517.21875 M 305.265625 541.714844 C 304.128906 542.546875 304.074219 543.507812 304.066406 563.472656 C 304.0625 574.957031 304.253906 584.878906 304.488281 585.511719 C 305.125 587.234375 307.304688 587.707031 308.714844 586.433594 C 309.835938 585.417969 309.894531 584.324219 309.894531 564.058594 L 309.894531 542.753906 L 308.535156 541.800781 C 306.867188 540.632812 306.75 540.628906 305.265625 541.714844 " fill-opacity="1" fill-rule="evenodd"/></svg>